<?xml version="1.0" encoding="utf-8"?>
<!-- Generator: Adobe Illustrator 19.0.0, SVG Export Plug-In . SVG Version: 6.00 Build 0)  -->
<svg version="1.1" id="icons" xmlns="http://www.w3.org/2000/svg" xmlns:xlink="http://www.w3.org/1999/xlink" x="0px" y="0px"
	 viewBox="-244 90.8 125 115" style="enable-background:new -244 90.8 125 115;" xml:space="preserve">
<style type="text/css">
	.st0{fill:#FFE36D;}
	.st1{fill:#2F3C3E;}
	.st2{fill:#009ACF;}
	.st3{fill:none;stroke:#FFFFFF;stroke-width:2.9651;stroke-miterlimit:10;}
</style>
<g>
	<path class="st0" d="M-137.7,205.8H-206c-2.2,0-3.9-1.8-3.9-3.9v-42.5c0-2.2,1.8-3.9,3.9-3.9h68.3c2.2,0,3.9,1.8,3.9,3.9v42.5
		C-133.8,204-135.5,205.8-137.7,205.8z"/>
	<g>
		<g>
			<g>
				<g>
					<path class="st1" d="M-222.3,181.4h-5.9c-3.3,0-5.9-2.7-5.9-5.9V134c0-3.3,2.7-5.9,5.9-5.9h68.2c3.3,0,5.9,2.7,5.9,5.9v11.9h-3
						V134c0-1.6-1.3-3-3-3h-68.2c-1.6,0-3,1.3-3,3v41.5c0,1.6,1.3,3,3,3h5.9V181.4z"/>
				</g>
				<g>
					<path class="st1" d="M-145.2,202.2h-68.2c-3.3,0-5.9-2.7-5.9-5.9v-41.5c0-3.3,2.7-5.9,5.9-5.9h68.2c3.3,0,5.9,2.7,5.9,5.9v41.5
						C-139.2,199.5-141.9,202.2-145.2,202.2z M-213.4,151.7c-1.6,0-3,1.3-3,3v41.5c0,1.6,1.3,3,3,3h68.2c1.6,0,3-1.3,3-3v-41.5
						c0-1.6-1.3-3-3-3H-213.4z"/>
				</g>
				<g>
					<path class="st1" d="M-186.7,187.3c-6.5,0-11.9-5.3-11.9-11.9c0-6.5,5.3-11.9,11.9-11.9c3.2,0,6.2,1.3,8.5,3.6l-2.1,2.1
						c-1.7-1.7-3.9-2.7-6.4-2.7c-4.9,0-8.9,4-8.9,8.9c0,4.9,4,8.9,8.9,8.9c2.4,0,4.7-0.9,6.4-2.7l2.1,2.1
						C-180.5,186.1-183.5,187.3-186.7,187.3z"/>
				</g>
				<g>
					<path class="st1" d="M-171.9,187.3c-6.5,0-11.9-5.3-11.9-11.9c0-6.5,5.3-11.9,11.9-11.9c6.5,0,11.9,5.3,11.9,11.9
						C-160,182-165.3,187.3-171.9,187.3z M-171.9,166.6c-4.9,0-8.9,4-8.9,8.9c0,4.9,4,8.9,8.9,8.9c4.9,0,8.9-4,8.9-8.9
						C-163,170.6-166.9,166.6-171.9,166.6z"/>
				</g>
				<g>
					<rect x="-232.6" y="135.4" class="st1" width="77.1" height="3"/>
				</g>
				<g>
					<rect x="-232.6" y="148.8" class="st1" width="10.4" height="3"/>
				</g>
				<g>
					<rect x="-207.4" y="174" class="st1" width="3" height="3"/>
				</g>
				<g>
					<rect x="-154.1" y="174" class="st1" width="3" height="3"/>
				</g>
				<g>
					<rect x="-177.8" y="141.4" class="st1" width="14.8" height="3"/>
				</g>
				<g>
					<rect x="-186.7" y="141.4" class="st1" width="5.9" height="3"/>
				</g>
			</g>
		</g>
	</g>
	<g>
		<g>
			<circle class="st2" cx="-149.6" cy="141.3" r="20.8"/>
		</g>
		<g>
			<line class="st3" x1="-155.9" y1="135" x2="-143.3" y2="147.6"/>
			<line class="st3" x1="-143.3" y1="135" x2="-155.9" y2="147.6"/>
		</g>
	</g>
</g>
</svg>
