<?xml version="1.0" encoding="utf-8"?>
<!-- Generator: Adobe Illustrator 19.0.0, SVG Export Plug-In . SVG Version: 6.00 Build 0)  -->
<svg version="1.1" id="icons" xmlns="http://www.w3.org/2000/svg" xmlns:xlink="http://www.w3.org/1999/xlink" x="0px" y="0px"
	 viewBox="-244 90.8 125 115" style="enable-background:new -244 90.8 125 115;" xml:space="preserve">
<style type="text/css">
	.st0{fill:#FFE36D;}
	.st1{fill:#2F3C3E;}
	.st2{fill:#009ACF;}
	.st3{fill:none;stroke:#FFFFFF;stroke-width:2.972;stroke-miterlimit:10;}
</style>
<g>
	<rect x="-182.8" y="141.9" class="st0" width="39.9" height="63.9"/>
	<g>
		<g>
			<path class="st1" d="M-208.2,184.6h-28.2v-3h26.7v-44.6h-26.7v-3h28.2c0.8,0,1.5,0.7,1.5,1.5v47.6
				C-206.8,184-207.4,184.6-208.2,184.6z"/>
		</g>
		<g>
			<path class="st1" d="M-197.8,138.6"/>
		</g>
		<g>
			<rect x="-215.7" y="175.7" class="st1" width="3" height="3"/>
		</g>
		<g>
			<rect x="-221.6" y="175.7" class="st1" width="3" height="3"/>
		</g>
		<g>
			<rect x="-230.5" y="135.6" class="st1" width="3" height="47.6"/>
		</g>
		<g>
			<rect x="-163.7" y="146" class="st1" width="16.3" height="3"/>
		</g>
		<g>
			<rect x="-162.2" y="157.9" class="st1" width="14.9" height="3"/>
		</g>
		<g>
			<rect x="-162.2" y="169.8" class="st1" width="11.9" height="3"/>
		</g>
		<g>
			<path class="st1" d="M-160.7,149c-4.1,0-7.4-3.3-7.4-7.4c0-4.1,3.3-7.4,7.4-7.4v3c-2.5,0-4.5,2-4.5,4.5s2,4.5,4.5,4.5V149z"/>
		</g>
		<g>
			<path class="st1" d="M-163.7,160.9c-4.1,0-7.4-3.3-7.4-7.4c0-4.1,3.3-7.4,7.4-7.4v3c-2.5,0-4.5,2-4.5,4.5s2,4.5,4.5,4.5V160.9z"
				/>
		</g>
		<g>
			<path class="st1" d="M-162.2,172.8c-4.1,0-7.4-3.3-7.4-7.4c0-4.1,3.3-7.4,7.4-7.4v3c-2.5,0-4.5,2-4.5,4.5s2,4.5,4.5,4.5V172.8z"
				/>
		</g>
		<g>
			<path class="st1" d="M-159.2,184.6c-4.1,0-7.4-3.3-7.4-7.4c0-4.1,3.3-7.4,7.4-7.4v3c-2.5,0-4.5,2-4.5,4.5s2,4.5,4.5,4.5V184.6z"
				/>
		</g>
		<g>
			<polygon class="st1" points="-147.3,201 -188.9,201 -188.9,134.1 -157.7,134.1 -157.7,137.1 -185.9,137.1 -185.9,198 -150.3,198 
				-150.3,183.2 -147.3,183.2 			"/>
		</g>
		<g>
			<path class="st1" d="M-160.7,193.6h-14.9v-1.5c0-1.7-1.3-3-3-3h-1.5l0-43h1.5c1.7,0,3-1.4,3-3v-1.5h8.9v3h-6.1
				c-0.5,2.1-2.2,3.8-4.3,4.3l0,37.5c2.1,0.5,3.7,2.2,4.3,4.3h9.3c0.5-2.1,2.1-3.9,4.3-4.5v-2l3,0.1v4.8h-1.4c-1.7,0-3,1.3-3,3
				V193.6z"/>
		</g>
		<g>
			<path class="st1" d="M-187,181.8h-6l-5.6-2.8c-0.2-0.1-0.4-0.2-0.7-0.2h-5.7v3h5.3l5.6,3.3c0.2,0.1,0.4,0.7,0.7,0.7h6.4V181.8z"
				/>
			<path class="st1" d="M-136.9,153.4c0-3.2-2-5.9-4.8-7c1.2-1.3,1.9-3.2,1.9-5.1c0-4.1-3.3-7.6-7.4-7.6h-27.6l-0.3-0.2l7-15.3
				c0-0.1,0.1-0.1,0.1-0.2c0.1-0.2,1.5-5.8,1.5-9.3c0-4.1-3.3-7.4-7.4-7.4c-3.2,0-5.7,2.5-5.9,5.6l-5.7,11.2l-15.7,15.6h-6.6v3h7.2
				c0.4,0,0.8,0,1.1-0.3l16.3-16.3c0.1-0.1,0.2-0.2,0.3-0.3l5.9-11.9c0.1-0.2,0.2-0.4,0.2-0.7c0-1.6,1.3-3,3-3c2.5,0,4.5,2,4.5,4.5
				c0,2.8-1.2,7.6-1.4,8.4l-7.4,16.2c-0.3,0.6-0.1,1.2,0.3,1.7l1.5,1.3c0.3,0.3,0.7,0.3,1.1,0.3h28.2c2.5,0,4.5,2.1,4.5,4.6
				s-2,4.5-4.5,4.5c-0.8,0-1.5,0.6-1.5,1.4s0.7,1.4,1.5,1.4h3c2.5,0,4.5,1.5,4.5,4s-2,4-4.5,4h-3c-0.8,0-1.5,1.2-1.5,2
				s0.7,1.8,1.5,1.8c2.5,0,4.5,2.1,4.5,4.6s-2,4.6-4.5,4.6h-3c-0.8,0-1.5,0.7-1.5,1.5s0.7,1.5,1.5,1.5c2.5,0,4.5,2.1,4.5,4.5
				c0,2.5-2,4.5-4.5,4.5h-8.7v4h8.7c4.1,0,7.4-3.9,7.4-8c0-1.9-0.7-3.9-1.9-5.2c2.8-1.1,4.8-3.9,4.8-7.1c0-1.9-0.7-3.7-1.9-5
				C-138.9,159.4-136.9,156.6-136.9,153.4z"/>
		</g>
	</g>
	<g>
		<g>
			<circle class="st2" cx="-147.3" cy="140" r="20.8"/>
		</g>
		<g>
			<polyline class="st3" points="-155.6,138.9 -148.8,145 -139.4,132.4 			"/>
		</g>
	</g>
</g>
</svg>
