<?xml version="1.0" encoding="utf-8"?>
<!-- Generator: Adobe Illustrator 19.0.0, SVG Export Plug-In . SVG Version: 6.00 Build 0)  -->
<svg version="1.1" id="icons" xmlns="http://www.w3.org/2000/svg" xmlns:xlink="http://www.w3.org/1999/xlink" x="0px" y="0px"
	 viewBox="-244 90.8 125 115" style="enable-background:new -244 90.8 125 115;" xml:space="preserve">
<style type="text/css">
	.st0{fill:#FFE36D;}
	.st1{fill:#2F3C3E;}
	.st2{fill:#009ACF;}
	.st3{fill:none;stroke:#FFFFFF;stroke-width:2.9434;stroke-miterlimit:10;}
</style>
<g>
	<rect x="-222.9" y="151.3" class="st0" width="84.3" height="54.5"/>
	<g>
		<g>
			<g>
				<polygon class="st1" points="-169.7,201.4 -231.5,201.4 -231.5,141 -165.3,141 -165.3,144 -228.6,144 -228.6,198.4 
					-169.7,198.4 				"/>
			</g>
			<g>
				<polygon class="st1" points="-143.2,201.4 -173.6,201.4 -173.6,198.4 -146.2,198.4 -146.2,144 -168.6,144 -168.6,141 
					-143.2,141 				"/>
			</g>
			<g>
				<g>
					<g>
						<path class="st1" d="M-215.3,182.3c-3.2,0-5.9-2.6-5.9-5.9h2.9c0,1.6,1.3,2.9,2.9,2.9c1.6,0,2.9-1.3,2.9-2.9
							c0-1-2.1-2.4-3.5-3.1c-0.9-0.4-5.3-2.5-5.3-5.8c0-3.2,2.6-5.9,5.9-5.9c3.2,0,5.9,2.6,5.9,5.9h-2.9c0-1.6-1.3-2.9-2.9-2.9
							c-1.6,0-2.9,1.3-2.9,2.9c0,1,2.1,2.4,3.5,3.1c0.9,0.4,5.3,2.5,5.3,5.8C-209.5,179.6-212.1,182.3-215.3,182.3z"/>
					</g>
				</g>
				<g>
					<rect x="-216.8" y="158.7" class="st1" width="2.9" height="4.4"/>
				</g>
				<g>
					<rect x="-216.8" y="180.8" class="st1" width="2.9" height="4.4"/>
				</g>
			</g>
			<g>
				<rect x="-202.1" y="151.3" class="st1" width="14.7" height="2.9"/>
			</g>
			<g>
				<rect x="-202.1" y="160.2" class="st1" width="41.2" height="2.9"/>
			</g>
			<g>
				<rect x="-202.1" y="167.5" class="st1" width="41.2" height="2.9"/>
			</g>
			<g>
				<rect x="-202.1" y="174.9" class="st1" width="41.2" height="2.9"/>
			</g>
			<g>
				<rect x="-202.1" y="186.7" class="st1" width="8.8" height="2.9"/>
			</g>
			<g>
				<polygon class="st1" points="-228.6,138.1 -231.5,138.1 -231.5,129.3 -165.3,129.3 -165.3,132.2 -228.6,132.2 				"/>
			</g>
			<g>
				<polygon class="st1" points="-143.2,138.1 -146.2,138.1 -146.2,132.2 -168.6,132.2 -168.6,129.3 -143.2,129.3 				"/>
			</g>
		</g>
	</g>
	<g>
		<g>
			<circle class="st2" cx="-152.1" cy="141" r="20.6"/>
		</g>
		<g>
			<polyline class="st3" points="-160.2,139.6 -153.5,145.7 -144.2,133.2 			"/>
		</g>
	</g>
</g>
</svg>
