<?xml version="1.0" encoding="utf-8"?>
<!-- Generator: Adobe Illustrator 19.0.0, SVG Export Plug-In . SVG Version: 6.00 Build 0)  -->
<svg version="1.1" id="icons" xmlns="http://www.w3.org/2000/svg" xmlns:xlink="http://www.w3.org/1999/xlink" x="0px" y="0px"
	 viewBox="-244 90.8 125 115" style="enable-background:new -244 90.8 125 115;" xml:space="preserve">
<style type="text/css">
	.st0{fill:#FFE36D;}
	.st1{fill:#2F3C3E;}
	.st2{fill:#009ACF;}
	.st3{fill:none;stroke:#FFFFFF;stroke-width:3.0298;stroke-miterlimit:10;}
</style>
<g>
	<g>
		<path class="st0" d="M-197.4,133.1c0,0,5.8,2.5,16.2,2.5c7.3,0,10.2-1.1,17.2-2.5v0l0,0c1.3-0.4,2.5-0.2,3.7-0.6
			c1.6-1.3,2.3-2.7,2.3-2.7h-4.3c0,0,1.3-6.2-4.2-12.2c-5.4-6.1-11.2-6.8-14.3-6.9c-3-0.1-8.8,1.9-13.5,6.5
			c-4.7,4.6-4.7,12.6-4.7,12.6h-3c0,0,0.5,1.1,1.5,2.2C-199.4,133-197.4,133.1-197.4,133.1z"/>
		<path class="st0" d="M-138.2,189.3c-0.1-2.9-0.6-4.7-3.4-8.3c-2.8-3.7-11.2-7-11.2-7s-11.4-3.9-14.8-5.5c-2.5-1.2-3.5-2.5-3.9-3.2
			l-0.3,0.1l-8.9,9.9l-9.2-10.5c-1.1,3.4-8.9,5.7-8.9,5.7s-8.4,2.4-17.6,7.5c-9.2,5-7.5,14.3-7.5,14.3v13.6l85.4,0
			C-138.6,205.8-138.1,192.2-138.2,189.3z"/>
	</g>
	<g>
		<g>
			<g>
				<g>
					<g>
						<path class="st1" d="M-142.9,201.2h-3v-16.7c0-7.9-9.4-12.2-18.7-15.2c-6.7-2.2-14.7-5.6-14.7-9v-7.6h3v7.6
							c0.4,1.1,6.3,4.1,12.6,6.1c10.2,3.4,20.7,8.2,20.7,18.1V201.2z"/>
					</g>
					<g>
						<path class="st1" d="M-227.7,201.2h-3v-16.7c0-9.9,10.5-14.7,20.7-18.1c6.3-2.1,12.2-5,12.6-6.2l0-7.5h3v7.6
							c0,3.4-8,6.8-14.7,9c-9.2,3.1-18.7,7.3-18.7,15.2V201.2z"/>
					</g>
					<g>
						<rect x="-214.1" y="169.4" class="st1" width="3" height="31.8"/>
					</g>
					<g>
						<rect x="-162.6" y="169.4" class="st1" width="3" height="31.8"/>
					</g>
					<g>
						<path class="st1" d="M-186.8,157.3c-11.8,0-16.4-11.4-16.7-19.1l-1.1-1.1c-0.3-0.3-0.4-0.7-0.4-1.1v-3h3v2.4l1.1,1.1
							c0.3,0.3,0.4,0.7,0.4,1.1c0,6.4,3.7,16.7,13.6,16.7c9.9,0,13.6-10.2,13.6-16.7c0-0.4,0.2-0.8,0.4-1.1l1.1-1.1v-2.4h3v3
							c0,0.4-0.2,0.8-0.4,1.1l-1.1,1.1C-170.4,145.9-175,157.3-186.8,157.3z"/>
					</g>
					<g>
						<path class="st1" d="M-186.8,172.4c-0.4,0-0.9-0.2-1.2-0.5l-9.1-10.6l2.3-2l7.9,9.3l7.9-9.3l2.3,2l-9.1,10.6
							C-185.9,172.3-186.3,172.4-186.8,172.4z"/>
					</g>
					<g>
						<path class="st1" d="M-186.8,133.1c-11,0-22.7-3.2-22.7-9.1h3c0,2.5,7.7,6.1,19.7,6.1c12,0,19.7-3.6,19.7-6.1h3
							C-164.1,129.9-175.8,133.1-186.8,133.1z"/>
					</g>
					<g>
						<path class="st1" d="M-167.1,124h-3c0-9.2-7.5-16.7-16.7-16.7c-9.2,0-16.7,7.5-16.7,16.7h-3c0-10.9,8.8-19.7,19.7-19.7
							C-175.9,104.3-167.1,113.1-167.1,124z"/>
					</g>
					<g>
						<g>
							<path class="st1" d="M-182.2,111.9h-3c0-3.3,2.7-6.1,6.1-6.1v3C-180.9,108.8-182.2,110.2-182.2,111.9z"/>
						</g>
						<g>
							<rect x="-185.3" y="111.9" class="st1" width="3" height="12.1"/>
						</g>
					</g>
					<g>
						<g>
							<path class="st1" d="M-188.3,111.9h-3c0-1.7-1.4-3-3-3v-3C-191,105.8-188.3,108.5-188.3,111.9z"/>
						</g>
						<g>
							<rect x="-191.3" y="111.9" class="st1" width="3" height="12.1"/>
						</g>
					</g>
					<g>
						<rect x="-205" y="164.9" class="st1" width="3" height="36.4"/>
					</g>
					<g>
						<rect x="-171.6" y="164.9" class="st1" width="3" height="36.4"/>
					</g>
					<g>
						<rect x="-198.9" y="177" class="st1" width="24.2" height="3"/>
					</g>
					<g>
						<rect x="-198.9" y="186.1" class="st1" width="24.2" height="3"/>
					</g>
					<g>
						<rect x="-198.9" y="195.2" class="st1" width="24.2" height="3"/>
					</g>
				</g>
			</g>
		</g>
	</g>
	<g>
		<g>
			<circle class="st2" cx="-153.5" cy="139.1" r="21.2"/>
		</g>
		<g>
			<polyline class="st3" points="-161.9,137.6 -155,143.8 -145.4,131 			"/>
		</g>
	</g>
	<path class="st0" d="M-201.9,133.1"/>
</g>
</svg>
