<?xml version="1.0" encoding="utf-8"?>
<!-- Generator: Adobe Illustrator 19.0.0, SVG Export Plug-In . SVG Version: 6.00 Build 0)  -->
<svg version="1.1" id="icons" xmlns="http://www.w3.org/2000/svg" xmlns:xlink="http://www.w3.org/1999/xlink" x="0px" y="0px"
	 viewBox="-244 90.8 125 115" style="enable-background:new -244 90.8 125 115;" xml:space="preserve">
<style type="text/css">
	.st0{fill:#FFE36D;}
	.st1{fill:#2F3C3E;}
	.st2{fill:#009ACF;}
	.st3{fill:none;stroke:#FFFFFF;stroke-width:3.0157;stroke-miterlimit:10;}
</style>
<g>
	<rect x="-213.2" y="152.9" class="st0" width="76" height="41.1"/>
	<g>
		<g>
			<path class="st1" d="M-221.9,172.7h-5.1c-8.6,0-12.3-7.3-12.4-7.6l2.7-1.3c0.1,0.3,3,5.9,9.7,5.9h5.1V172.7z"/>
		</g>
		<g>
			<path class="st1" d="M-194.4,145.1l-8.9-11.4c-1.9-2-4.6-3.2-7.5-3.2h-28.8v-3h1h27.9c3.7,0,7.3,1.6,9.8,4.3l8.9,11.6
				L-194.4,145.1z"/>
		</g>
		<g>
			<path class="st1" d="M-203.3,164.1c-2,0-4.1-0.5-5.8-1.7c-2-1.4-7.4-5.8-9.4-7.5c-8.8,3.3-15.8-2.2-16.1-2.5l2-2.3l-0.9,1.2
				l0.9-1.2c0.3,0.2,6.3,5,13.8,1.7l0.9-0.4l0.7,0.7c0.1,0.1,7.6,6.3,9.8,7.9c3.1,2,7.9,1,9.4-0.8c0.4-0.5,0.5-0.9-0.2-1.6
				c-3.9-3.9-18.8-19.1-18.9-19.3l2.1-2.1c0.2,0.2,15,15.4,18.9,19.2c1.7,1.7,1.9,3.8,0.4,5.6C-197.2,162.9-200.1,164.1-203.3,164.1
				z"/>
		</g>
		<g>
			<polygon class="st1" points="-143,187.7 -222.9,187.7 -222.9,155.1 -219.9,155.1 -219.9,184.7 -146,184.7 -146,145.4 
				-208.9,145.4 -208.9,142.5 -143,142.5 			"/>
		</g>
		<g>
			<rect x="-218.1" y="193.7" class="st1" width="70.7" height="3"/>
		</g>
		<g>
			<rect x="-213.6" y="202.8" class="st1" width="61.6" height="3"/>
		</g>
		<g>
			<path class="st1" d="M-152,156.2V174h-1.5c-1.7,0-2.9,1.4-2.9,3.1v1.5h-51.4v-1.5c0-1.7-1.4-3-3.1-3h-1.5v-15.5h3v12.7
				c2.1,0.6,3.8,2.2,4.4,4.4h45.7c0.6-2.1,2.1-3.8,4.3-4.4v-15.1"/>
			<polyline class="st1" points="-159.4,154.5 -200.3,154.5 -200.3,151.5 -156.6,151.5 			"/>
		</g>
		<g>
			<rect x="-168.6" y="163.5" class="st1" width="3" height="3"/>
		</g>
		<g>
			<rect x="-192.8" y="163.5" class="st1" width="3" height="3"/>
		</g>
		<g>
			<path class="st1" d="M-179.1,171.2c-3.8,0-6.9-3.1-6.9-6.9s3.1-6.9,6.9-6.9c3.8,0,6.9,3.1,6.9,6.9S-175.3,171.2-179.1,171.2z
				 M-179.1,160.6c-2.1,0-3.8,1.8-3.8,3.8c0,2.1,1.8,3.8,3.8,3.8c2.1,0,3.8-1.8,3.8-3.8C-175.2,162.2-177,160.6-179.1,160.6z"/>
		</g>
	</g>
	<g>
		<g>
			<circle class="st2" cx="-144.5" cy="150" r="21.1"/>
		</g>
		<g>
			<line class="st3" x1="-150.9" y1="143.6" x2="-138.1" y2="156.4"/>
			<line class="st3" x1="-138.1" y1="143.6" x2="-150.9" y2="156.4"/>
		</g>
	</g>
</g>
</svg>
