<?xml version="1.0" encoding="utf-8"?>
<!-- Generator: Adobe Illustrator 19.0.0, SVG Export Plug-In . SVG Version: 6.00 Build 0)  -->
<svg version="1.1" id="icons" xmlns="http://www.w3.org/2000/svg" xmlns:xlink="http://www.w3.org/1999/xlink" x="0px" y="0px"
	 viewBox="-244 90.8 125 115" style="enable-background:new -244 90.8 125 115;" xml:space="preserve">
<style type="text/css">
	.st0{fill:#FFE36D;}
	.st1{fill:#2F3C3E;}
	.st2{fill:#009ACF;}
	.st3{fill:none;stroke:#FFFFFF;stroke-width:2.9609;stroke-miterlimit:10;}
	.st4{fill:none;stroke:#213B3C;stroke-width:2.7331;stroke-miterlimit:10;}
</style>
<g>
	<path class="st0" d="M-137.7,168.1c0-16.8-16.9-30.3-38.3-30.3c-6.4,0-12.8,1.3-18.2,3.5l-9.2-6.4V146c0,0.4-0.5,1.9-1,2.3
		c-4.5,3.7-7.1,8.2-8.7,14.6h-5c-2.1,0-4.4-0.5-4.4,1.7v7.5c0,2.1,2.3,5.5,4.4,5.5h5.2c2.2,5.5,6.8,10.6,12.3,14.6v13.7h11.8V197
		c2.7,1,7.6,1.5,11.8,1.5c4.3,0,9.1-0.5,11.8-1.5v8.8h11.8v-13.7C-144.1,186.5-137.7,177.8-137.7,168.1z"/>
	<g>
		<g>
			<path class="st1" d="M-206,188.3c-6.3-4.2-10.7-9.7-12.8-16.1l2.8-0.9c1.8,5.7,5.8,10.8,11.6,14.6L-206,188.3z"/>
		</g>
		<g>
			<path class="st1" d="M-181.5,195.4c-4.2,0-8.3-0.5-12.2-1.6l0.7-2.8c7.4,2,15.6,2,22.9,0l0.7,2.8
				C-173.2,194.9-177.3,195.4-181.5,195.4z"/>
		</g>
		<g>
			<path class="st1" d="M-157,188.3l-1.6-2.5c8-5.4,12.7-13.2,12.7-21.5c0-8.8-5.1-17-14.1-22.4l1.5-2.6c9.8,5.9,15.5,15,15.5,25
				C-143,173.6-148.1,182.4-157,188.3z"/>
		</g>
		<g>
			<path class="st1" d="M-212.6,173.2h-11.8c-2.5,0-4.5-2-4.5-4.5v-8.9c0-2.5,2-4.5,4.5-4.5h4.9c1.6-4.1,4.9-8.3,9.9-12.6v-15.5
				l12,8.7c3.8-1.5,7.2-2.7,11.7-2.7v2.9c-4,0-7.1,1.2-10.9,2.7l-1.1,0.5l-8.7-6.2v11.1l-0.5,0.5c-5.2,4.3-8.7,8.7-9.9,12.7l-0.4,1
				h-7c-0.8,0-1.5,0.6-1.5,1.5v8.9c0,0.8,0.6,1.5,1.5,1.5h11.8C-212.6,170.3-212.6,173.2-212.6,173.2z"/>
		</g>
		<g>
			<path class="st1" d="M-163.1,147.8c-5-3.8-12-5.6-21.3-5.6v-2.9c9.9,0,17.5,2,23,6.2L-163.1,147.8z"/>
		</g>
		<g>
			<polygon class="st1" points="-191.9,201.3 -206.6,201.3 -206.6,180.7 -203.7,180.7 -203.7,198.4 -194.8,198.4 -194.8,188 
				-191.9,188 			"/>
		</g>
		<g>
			<polygon class="st1" points="-156.4,201.3 -171.1,201.3 -171.1,188 -168.2,188 -168.2,198.4 -159.3,198.4 -159.3,180.7 
				-156.4,180.7 			"/>
		</g>
		<g>
			<path class="st1" d="M-144.5,165.8v-2.9c4.1,0,7.4-3.3,7.4-7.4h2.9C-134.1,161.2-138.8,165.8-144.5,165.8z"/>
		</g>
		<g>
			<g>
				<rect x="-171.1" y="106.6" class="st1" width="2.9" height="8.9"/>
			</g>
			<g>
				<rect x="-177" y="115.5" class="st1" width="2.9" height="8.9"/>
			</g>
			<g>
				<rect x="-177" y="109.6" class="st1" width="2.9" height="2.9"/>
			</g>
			<g>
				<path class="st1" d="M-168.7,144.2l-1.3-2.6c2-1,3.4-3.1,3.4-5.4c0-3.3-2.6-5.9-5.9-5.9s-5.9,2.6-5.9,5.9c0,1.3,0.4,2.6,1.2,3.6
					l-2.4,1.7c-1.2-1.5-1.7-3.4-1.7-5.3c0-4.9,4-8.9,8.9-8.9c4.9,0,8.9,4,8.9,8.9C-163.7,139.6-165.7,142.8-168.7,144.2z"/>
			</g>
		</g>
		<g>
			<rect x="-228.9" y="198.4" class="st1" width="94.7" height="2.9"/>
		</g>
	</g>
	<g>
		<g>
			<circle class="st2" cx="-172.7" cy="139.1" r="20.8"/>
		</g>
		<g>
			<line class="st3" x1="-178.9" y1="131.8" x2="-166.4" y2="144.4"/>
			<line class="st3" x1="-166.4" y1="131.8" x2="-178.9" y2="144.4"/>
		</g>
	</g>
	<line class="st4" x1="-209.7" y1="159.7" x2="-203.4" y2="159.7"/>
</g>
</svg>
