<svg xmlns="http://www.w3.org/2000/svg" viewBox="0 0 50 56.9"><defs><style>.cls-1{fill:#333;}</style></defs><title>Ресурс 1</title><g id="Слой_2" data-name="Слой 2"><g id="Layer_1" data-name="Layer 1"><path class="cls-1" d="M2,56.9H0V48.12a9.7,9.7,0,0,1,5.87-8.9C10.42,37.29,16,34.73,18,33.91V28.79l2,.8V35.2l-.59.27c-.07,0-7.27,3.27-12.76,5.6a7.51,7.51,0,0,0-4.65,7Z"/><rect class="cls-1" x="8" y="38.9" width="2" height="18"/><polygon class="cls-1" points="15 56.9 13 56.9 13 36.66 15 35.79 15 56.9"/><path class="cls-1" d="M50,56.9H48V48.12a7.53,7.53,0,0,0-4.65-7.06c-5.49-2.32-12.69-5.56-12.76-5.6L30,35.2V29.69l2-.9v5.12c2,.82,7.58,3.39,12.13,5.31a9.72,9.72,0,0,1,5.87,9Z"/><rect class="cls-1" x="40" y="38.9" width="2" height="18"/><polygon class="cls-1" points="37 56.9 35 56.9 35 35.79 37 36.72 37 56.9"/><polygon class="cls-1" points="24.88 42.37 18.38 35.23 19.86 33.88 24.92 39.44 30.28 33.86 31.72 35.25 24.88 42.37"/><rect class="cls-1" x="24" y="44.63" width="2" height="2"/><rect class="cls-1" x="24" y="48.63" width="2" height="2"/><rect class="cls-1" x="24" y="52.63" width="2" height="2"/><path class="cls-1" d="M25,32.9h-.2c-7.14,0-9.91-6.81-10.43-10.85L13,20.54V17.9h2v2l1.29,1.78,0-.1c0,.4,1.15,9.33,8.48,9.33H25Z"/><path class="cls-1" d="M25.2,32.9H25v-2h.2c7.33,0,8.43-8.94,8.47-9.33l0-.08L35,19.89v-2h2v2.65L35.63,22C35.12,26.08,32.34,32.9,25.2,32.9Z"/><path class="cls-1" d="M34,18.61"/><path class="cls-1" d="M24.64,17.89c-13,0-13.4-5-13.4-6h1l1,.38s.43,3.83,11.4,3.83c11.46,0,11.93-3.48,11.93-3.52l2-.11C38.56,13,38.17,17.89,24.64,17.89Z"/><path class="cls-1" d="M36.75,11.9h-2A10.19,10.19,0,0,0,24.9,2,10.19,10.19,0,0,0,15,11.9H13C13,5.9,18.36,0,24.9,0S36.75,5.9,36.75,11.9Z"/><path class="cls-1" d="M27,11.9H25V5.53a3.53,3.53,0,0,1,2.88-3.75l.51,1.94C27,4.09,27,5.05,27,5.34V11.9Z"/><path class="cls-1" d="M24,11.9H22V5c0-.27,0-1.07-1.4-1.44l.51-1.85A3.61,3.61,0,0,1,24,5.53Z"/></g></g></svg>