<svg xmlns="http://www.w3.org/2000/svg" viewBox="0 0 34 60"><defs><style>.cls-1{fill:#333;}</style></defs><title>Ресурс 3</title><g id="Слой_2" data-name="Слой 2"><g id="Layer_1" data-name="Layer 1"><polygon class="cls-1" points="20 12 18 12 18 2 16 2 16 12 14 12 14 0 20 0 20 12"/><path class="cls-1" d="M33,56a1,1,0,0,1-.92-.6L17,21.52,1.92,55.4A1,1,0,0,1,0,55V46a1,1,0,0,1,.07-.37l8-20,1.86.74L2,46.19v4L16.08,18.6a1,1,0,0,1,1.84,0L32,50.17v-4L24.07,26.37l1.86-.74,8,20A1,1,0,0,1,34,46v9a1,1,0,0,1-.8,1Z"/><rect class="cls-1" x="4" y="54" width="2" height="2"/><rect class="cls-1" x="8" y="54" width="2" height="2"/><rect class="cls-1" x="12" y="54" width="2" height="2"/><rect class="cls-1" x="16" y="54" width="2" height="2"/><rect class="cls-1" x="20" y="54" width="2" height="2"/><rect class="cls-1" x="24" y="54" width="2" height="2"/><rect class="cls-1" x="28" y="54" width="2" height="2"/><rect class="cls-1" x="9" y="37" width="16" height="2"/><path class="cls-1" d="M20.71,26.71l-1.41-1.41,2-2A6.25,6.25,0,0,0,23,19a6,6,0,0,0-12,0,6.26,6.26,0,0,0,1.71,4.3l2,2-1.41,1.41-2-2A8.19,8.19,0,0,1,9,19a8,8,0,0,1,16,0,8.18,8.18,0,0,1-2.29,5.7Z"/><rect class="cls-1" x="16" y="50" width="2" height="2"/><rect class="cls-1" x="16" y="58" width="2" height="2"/><path class="cls-1" d="M17,41a3,3,0,1,1,3-3A3,3,0,0,1,17,41Zm0-4a1,1,0,1,0,1,1A1,1,0,0,0,17,37Z"/></g></g></svg>