<svg xmlns="http://www.w3.org/2000/svg" viewBox="0 0 47 56"><defs><style>.cls-1{fill:#333;}</style></defs><title>Ресурс 2</title><g id="Слой_2" data-name="Слой 2"><g id="Layer_1" data-name="Layer 1"><polygon class="cls-1" points="39.87 25 37.87 25 37.87 9 30.87 2 2 2 2 25 0 25 0 0 31.7 0 39.87 8.17 39.87 25"/><rect class="cls-1" x="5" y="8" width="16.87" height="2"/><rect class="cls-1" x="5" y="13" width="16.87" height="2"/><rect class="cls-1" x="5" y="18" width="12" height="2"/><rect class="cls-1" x="5" y="23" width="4" height="2"/><path class="cls-1" d="M16,56H1a1,1,0,0,1-1-1V31a1,1,0,0,1,1-1H16a1,1,0,0,1,1,1V55A1,1,0,0,1,16,56ZM2,54H15V32H2Z"/><path class="cls-1" d="M40,56H23a1,1,0,0,1-.45-.1l-4-2,.9-1.79L23.24,54H40a2,2,0,0,0,0-4,1,1,0,0,1,0-2h1a2,2,0,0,0,0-4,1,1,0,0,1,0-2h2a2,2,0,0,0,0-4H42a1,1,0,0,1,0-2,2,2,0,0,0,0-4H29a1,1,0,0,1-.94-1.34L32,19.82V18a2,2,0,0,0-4,0,1,1,0,0,1-.1.45l-3,6a1,1,0,0,1-.14.2l-6,7A1,1,0,0,1,18,32H16V30h1.54l5.62-6.56L26,17.75A4,4,0,0,1,34,18v2a1,1,0,0,1-.06.34L30.43,30H42a4,4,0,0,1,3.06,6.57,4,4,0,0,1-.74,7.2,4,4,0,0,1-1.26,5.65A4,4,0,0,1,40,56Z"/><rect class="cls-1" x="11" y="50" width="2" height="2"/><rect class="cls-1" x="29.5" y="2" width="2" height="7"/><polygon class="cls-1" points="38.87 9 38.03 7 30.5 7 30.5 9 38.87 9"/></g></g></svg>