<?xml version="1.0" encoding="utf-8"?>
<!-- Generator: Adobe Illustrator 16.0.0, SVG Export Plug-In . SVG Version: 6.00 Build 0)  -->
<!DOCTYPE svg PUBLIC "-//W3C//DTD SVG 1.1//EN" "http://www.w3.org/Graphics/SVG/1.1/DTD/svg11.dtd">
<svg version="1.1" id="Layer_1" xmlns="http://www.w3.org/2000/svg" xmlns:xlink="http://www.w3.org/1999/xlink" x="0px" y="0px"
	 width="21px" height="19px" viewBox="0 0 21 19" enable-background="new 0 0 21 19" xml:space="preserve">
<g>
	<g>
		<path fill="#008DAF" d="M8.699,16.81C3.902,16.81,0,13.04,0,8.405S3.902,0,8.699,0s8.698,3.771,8.698,8.405
			S13.496,16.81,8.699,16.81z M8.699,1.973c-3.671,0-6.657,2.885-6.657,6.433c0,3.546,2.986,6.432,6.657,6.432
			c3.67,0,6.656-2.886,6.656-6.432C15.355,4.858,12.369,1.973,8.699,1.973z"/>
	</g>
	<g>
		<path fill="#008DAF" d="M19.979,19c-0.25,0-0.501-0.089-0.699-0.267l-5.372-4.871c-0.41-0.373-0.432-0.997-0.046-1.395
			c0.387-0.397,1.031-0.416,1.443-0.045l5.373,4.871c0.41,0.373,0.432,0.997,0.046,1.395C20.521,18.895,20.251,19,19.979,19z"/>
	</g>
</g>
</svg>
