<?xml version="1.0" encoding="utf-8"?>
<!-- Generator: Adobe Illustrator 16.0.0, SVG Export Plug-In . SVG Version: 6.00 Build 0)  -->
<!DOCTYPE svg PUBLIC "-//W3C//DTD SVG 1.1//EN" "http://www.w3.org/Graphics/SVG/1.1/DTD/svg11.dtd">
<svg version="1.1" id="Layer_1" xmlns="http://www.w3.org/2000/svg" xmlns:xlink="http://www.w3.org/1999/xlink" x="0px" y="0px"
	 width="20px" height="20px" viewBox="0 0 20 20" enable-background="new 0 0 20 20" xml:space="preserve">
<g>
	<path d="M15.138,19H1.047c-0.363,0-0.698-0.197-0.874-0.515s-0.167-0.705,0.025-1.014l4.974-8C5.354,9.179,5.675,9,6.021,9H19
		c0.344,0,0.664,0.177,0.848,0.469c0.182,0.291,0.203,0.656,0.053,0.966l-3.862,8C15.871,18.78,15.521,19,15.138,19z M2.846,17
		H14.51l2.896-6H6.577L2.846,17z"/>
</g>
<g>
	<path d="M1,19c-0.552,0-1-0.447-1-1V3c0-0.553,0.448-1,1-1h6.041c0.335,0,0.647,0.168,0.833,0.446L9.571,5h3.966
		c0.328,0,0.636,0.161,0.822,0.432l2.531,3.667c0.314,0.455,0.2,1.077-0.254,1.392c-0.456,0.312-1.078,0.198-1.391-0.255L13.012,7
		H9.035C8.7,7,8.388,6.832,8.203,6.554L6.504,4H2v14C2,18.553,1.552,19,1,19z"/>
</g>
</svg>
