<?xml version="1.0" encoding="utf-8"?>
<!-- Generator: Adobe Illustrator 16.0.0, SVG Export Plug-In . SVG Version: 6.00 Build 0)  -->
<!DOCTYPE svg PUBLIC "-//W3C//DTD SVG 1.1//EN" "http://www.w3.org/Graphics/SVG/1.1/DTD/svg11.dtd">
<svg version="1.1" id="Layer_1" xmlns="http://www.w3.org/2000/svg" xmlns:xlink="http://www.w3.org/1999/xlink" x="0px" y="0px"
	 width="20px" height="20px" viewBox="0 0 20 20" enable-background="new 0 0 20 20" xml:space="preserve">
<g>
	<g>
		<path d="M14,19.688c-0.211,0-0.42-0.066-0.596-0.196L11.394,18h-4.37C5.06,18,4,16.031,4,14.179V8.065C4,6.146,5.13,5,7.023,5
			h9.781C18.746,5,20,6.203,20,8.065v6.113C20,16.017,18.778,18,16.805,18H15v0.688c0,0.378-0.213,0.724-0.55,0.894
			C14.308,19.652,14.153,19.688,14,19.688z M7.023,7C6.249,7,6,7.259,6,8.065v6.113C6,14.913,6.325,16,7.023,16h4.7
			c0.215,0,0.423,0.069,0.596,0.196l0.718,0.532C13.155,16.309,13.542,16,14,16h2.805C17.489,16,18,15.038,18,14.179V8.065
			C18,7.539,17.858,7,16.805,7H7.023z"/>
	</g>
	<g>
		<path d="M4,14H3.023C1.06,14,0,12.031,0,10.179V4.065C0,2.146,1.13,1,3.023,1h9.781C14.746,1,16,2.203,16,4.065V6
			c0,0.552-0.447,1-1,1s-1-0.448-1-1V4.065C14,3.539,13.858,3,12.805,3H3.023C2.249,3,2,3.259,2,4.065v6.113
			C2,10.913,2.325,12,3.023,12H4c0.552,0,1,0.447,1,1S4.552,14,4,14z"/>
	</g>
</g>
</svg>
