<?xml version="1.0" encoding="utf-8"?>
<!-- Generator: Adobe Illustrator 16.0.0, SVG Export Plug-In . SVG Version: 6.00 Build 0)  -->
<!DOCTYPE svg PUBLIC "-//W3C//DTD SVG 1.1//EN" "http://www.w3.org/Graphics/SVG/1.1/DTD/svg11.dtd">
<svg version="1.1" id="Layer_1" xmlns="http://www.w3.org/2000/svg" xmlns:xlink="http://www.w3.org/1999/xlink" x="0px" y="0px"
	 width="42px" height="42px" viewBox="0 0 42 42" enable-background="new 0 0 42 42" xml:space="preserve">
<g>
	<path fill="#FFFFFF" d="M33.984,5.999V31.99H8.016V5.999H33.984 M35.984,4H6.016v29.99h29.969V4L35.984,4z"/>
	<path fill="#FFFFFF" d="M29.984,10.045v17.947H11.998V10.045H29.984 M31.984,8.046H9.998v21.945h21.986V8.046L31.984,8.046z"/>
	<path fill="#FFFFFF" d="M33.479,33.99L36,35.563v0.438H6v-0.426l2.581-1.585H33.479 M34.053,31.99H8.016L4,34.456V38h34v-3.544
		L34.053,31.99L34.053,31.99z"/>
	<g>
		<rect x="20" y="9" fill="#FFFFFF" width="2" height="20"/>
	</g>
	<g>
		<rect x="23" y="18" fill="#FFFFFF" width="2" height="3"/>
	</g>
</g>
</svg>
