<?xml version="1.0" encoding="utf-8"?>
<!-- Generator: Adobe Illustrator 16.0.0, SVG Export Plug-In . SVG Version: 6.00 Build 0)  -->
<!DOCTYPE svg PUBLIC "-//W3C//DTD SVG 1.1//EN" "http://www.w3.org/Graphics/SVG/1.1/DTD/svg11.dtd">
<svg version="1.1" id="Layer_1" xmlns="http://www.w3.org/2000/svg" xmlns:xlink="http://www.w3.org/1999/xlink" x="0px" y="0px"
	 width="42px" height="42px" viewBox="0 0 42 42" enable-background="new 0 0 42 42" xml:space="preserve">
<g>
	<g>
		<path fill="#FFFFFF" d="M38,18c0,2.209-1.791,4-4,4H8c-2.209,0-4-1.791-4-4V8c0-2.209,1.791-4,4-4h26c2.209,0,4,1.791,4,4V18z
			 M36,8c0-1.104-0.896-2-2-2H8C6.896,6,6,6.896,6,8v10c0,1.104,0.896,2,2,2h26c1.104,0,2-0.896,2-2V8z"/>
	</g>
	<g>
		<path fill="#FFFFFF" d="M34.477,22H7.523l2.8-7h21.354L34.477,22z M10.477,20h21.046l-1.2-3H11.677L10.477,20z"/>
	</g>
	<g>
		<rect x="14" y="16" fill="#FFFFFF" width="2" height="3"/>
	</g>
	<g>
		<rect x="18" y="16" fill="#FFFFFF" width="2" height="3"/>
	</g>
	<g>
		<rect x="22" y="16" fill="#FFFFFF" width="2" height="3"/>
	</g>
	<g>
		<rect x="26" y="16" fill="#FFFFFF" width="2" height="3"/>
	</g>
	<g>
		<path fill="#FFFFFF" d="M23,10h-4c-0.552,0-1-0.448-1-1s0.448-1,1-1h4c0.553,0,1,0.448,1,1S23.553,10,23,10z"/>
	</g>
	<g>
		<path fill="#FFFFFF" d="M13,33.207L10.293,30.5c-0.391-0.391-0.391-1.023,0-1.414s1.023-0.391,1.414,0L13,30.379l1.293-1.293
			c0.391-0.391,1.023-0.391,1.414,0s0.391,1.023,0,1.414L13,33.207z"/>
	</g>
	<g>
		<path fill="#FFFFFF" d="M13,32.793c-0.552,0-1-0.447-1-1v-7c0-0.553,0.448-1,1-1s1,0.447,1,1v7C14,32.346,13.552,32.793,13,32.793
			z"/>
	</g>
	<g>
		<path fill="#FFFFFF" d="M29,33.207L26.293,30.5c-0.391-0.391-0.391-1.023,0-1.414s1.023-0.391,1.414,0L29,30.379l1.293-1.293
			c0.391-0.391,1.023-0.391,1.414,0s0.391,1.023,0,1.414L29,33.207z"/>
	</g>
	<g>
		<path fill="#FFFFFF" d="M29,32.793c-0.553,0-1-0.447-1-1v-7c0-0.553,0.447-1,1-1s1,0.447,1,1v7C30,32.346,29.553,32.793,29,32.793
			z"/>
	</g>
	<g>
		<path fill="#FFFFFF" d="M21,38.207L18.293,35.5c-0.391-0.391-0.391-1.023,0-1.414s1.023-0.391,1.414,0L21,35.379l1.293-1.293
			c0.391-0.391,1.023-0.391,1.414,0s0.391,1.023,0,1.414L21,38.207z"/>
	</g>
	<g>
		<path fill="#FFFFFF" d="M21,37.793c-0.552,0-1-0.447-1-1v-13c0-0.553,0.448-1,1-1s1,0.447,1,1v13
			C22,37.346,21.552,37.793,21,37.793z"/>
	</g>
</g>
</svg>
