<?xml version="1.0" encoding="utf-8"?>
<!-- Generator: Adobe Illustrator 16.0.0, SVG Export Plug-In . SVG Version: 6.00 Build 0)  -->
<!DOCTYPE svg PUBLIC "-//W3C//DTD SVG 1.1//EN" "http://www.w3.org/Graphics/SVG/1.1/DTD/svg11.dtd">
<svg version="1.1" id="Layer_1" xmlns="http://www.w3.org/2000/svg" xmlns:xlink="http://www.w3.org/1999/xlink" x="0px" y="0px"
	 width="42px" height="42px" viewBox="0 0 42 42" enable-background="new 0 0 42 42" xml:space="preserve">
<g>
	<g>
		<path fill="#FFFFFF" d="M10.5,38.5c-3.584,0-6.5-2.243-6.5-5s2.916-5,6.5-5s6.5,2.243,6.5,5S14.084,38.5,10.5,38.5z M10.5,30.5
			c-2.439,0-4.5,1.374-4.5,3s2.061,3,4.5,3s4.5-1.374,4.5-3S12.939,30.5,10.5,30.5z"/>
	</g>
	<g>
		<path fill="#FFFFFF" d="M5,34.5c-0.552,0-1-0.447-1-1v-25c0-2.757,2.916-5,6.5-5s6.5,2.243,6.5,5v24c0,0.553-0.448,1-1,1
			s-1-0.447-1-1v-24c0-1.626-2.061-3-4.5-3S6,6.874,6,8.5v25C6,34.053,5.552,34.5,5,34.5z"/>
	</g>
	<g>
		<path fill="#FFFFFF" d="M12,35H9c-0.552,0-1-0.447-1-1s0.448-1,1-1h3c0.552,0,1,0.447,1,1S12.552,35,12,35z"/>
	</g>
	<g>
		<path fill="#FFFFFF" d="M36,39H11c-0.552,0-1-0.447-1-1s0.448-1,1-1h24V14H16c-0.552,0-1-0.448-1-1s0.448-1,1-1h20
			c0.553,0,1-0.052,1,0.5v25C37,38.053,36.553,39,36,39z"/>
	</g>
	<g>
		<path fill="#FFFFFF" d="M19.999,32.5c-0.15,0-0.303-0.034-0.446-0.105c-0.494-0.247-0.694-0.848-0.447-1.342l1.741-3.48
			l-1.678-2.518c-0.224-0.336-0.224-0.773,0-1.109l1.63-2.445l-1.63-2.445c-0.306-0.459-0.182-1.081,0.277-1.387
			c0.458-0.308,1.081-0.182,1.387,0.277l2,3c0.224,0.336,0.224,0.773,0,1.109l-1.63,2.445l1.63,2.445
			c0.199,0.299,0.223,0.681,0.062,1.002l-2,4C20.719,32.298,20.366,32.5,19.999,32.5z"/>
	</g>
	<g>
		<path fill="#FFFFFF" d="M24.999,32.5c-0.15,0-0.303-0.034-0.446-0.105c-0.494-0.247-0.694-0.848-0.447-1.342l1.74-3.48
			l-1.678-2.518c-0.224-0.336-0.224-0.773,0-1.109l1.63-2.445l-1.63-2.445c-0.307-0.459-0.183-1.081,0.277-1.387
			c0.461-0.308,1.08-0.182,1.387,0.277l2,3c0.224,0.336,0.224,0.773,0,1.109l-1.63,2.445l1.63,2.445
			c0.199,0.299,0.223,0.681,0.062,1.002l-2,4C25.719,32.298,25.366,32.5,24.999,32.5z"/>
	</g>
	<g>
		<path fill="#FFFFFF" d="M29.999,32.5c-0.15,0-0.303-0.034-0.446-0.105c-0.494-0.247-0.694-0.848-0.447-1.342l1.74-3.48
			l-1.678-2.518c-0.224-0.336-0.224-0.773,0-1.109l1.63-2.445l-1.63-2.445c-0.307-0.459-0.183-1.081,0.277-1.387
			c0.461-0.308,1.081-0.182,1.387,0.277l2,3c0.224,0.336,0.224,0.773,0,1.109l-1.63,2.445l1.63,2.445
			c0.199,0.299,0.223,0.681,0.062,1.002l-2,4C30.719,32.298,30.366,32.5,29.999,32.5z"/>
	</g>
</g>
</svg>
