<?xml version="1.0" encoding="utf-8"?>
<!-- Generator: Adobe Illustrator 16.0.0, SVG Export Plug-In . SVG Version: 6.00 Build 0)  -->
<!DOCTYPE svg PUBLIC "-//W3C//DTD SVG 1.1//EN" "http://www.w3.org/Graphics/SVG/1.1/DTD/svg11.dtd">
<svg version="1.1" id="Layer_1" xmlns="http://www.w3.org/2000/svg" xmlns:xlink="http://www.w3.org/1999/xlink" x="0px" y="0px"
	 width="42px" height="42px" viewBox="0 0 42 42" enable-background="new 0 0 42 42" xml:space="preserve">
<g>
	<g>
		<path fill="#FFFFFF" d="M28.5,6v6h-22V6H28.5 M30.5,4h-26v10h26V4L30.5,4z"/>
	</g>
	<g>
		<rect x="16.5" y="4.399" fill="#FFFFFF" width="2" height="9.132"/>
	</g>
	<g>
		<rect x="28.5" y="4.399" fill="#FFFFFF" width="2" height="9.132"/>
	</g>
	<g>
		<path fill="#FFFFFF" d="M23.885,13.941"/>
	</g>
	<g>
		<path fill="#FFFFFF" d="M35.5,14v6h-29v-6H35.5 M37.5,12h-33v10h33V12L37.5,12z"/>
	</g>
	<g>
		<rect x="22.532" y="12.399" fill="#FFFFFF" width="2" height="9.132"/>
	</g>
	<g>
		<rect x="10.5" y="12.868" fill="#FFFFFF" width="2" height="9.132"/>
	</g>
	<g>
		<path fill="#FFFFFF" d="M23.887,21.941"/>
	</g>
	<g>
		<path fill="#FFFFFF" d="M28.5,22v6h-22v-6H28.5 M30.5,20h-26v10h26V20L30.5,20z"/>
	</g>
	<g>
		<rect x="16.5" y="20.399" fill="#FFFFFF" width="2" height="9.132"/>
	</g>
	<g>
		<path fill="#FFFFFF" d="M23.885,29.941"/>
	</g>
	<g>
		<path fill="#FFFFFF" d="M35.5,30v6h-29v-6H35.5 M37.5,28h-33v10h33V28L37.5,28z"/>
	</g>
	<g>
		<rect x="22.532" y="28.399" fill="#FFFFFF" width="2" height="9.132"/>
	</g>
	<g>
		<rect x="10.5" y="28.868" fill="#FFFFFF" width="2" height="9.132"/>
	</g>
	<g>
		<path fill="#FFFFFF" d="M23.887,37.941"/>
	</g>
</g>
</svg>
