<?xml version="1.0" encoding="utf-8"?>
<!-- Generator: Adobe Illustrator 16.0.0, SVG Export Plug-In . SVG Version: 6.00 Build 0)  -->
<!DOCTYPE svg PUBLIC "-//W3C//DTD SVG 1.1//EN" "http://www.w3.org/Graphics/SVG/1.1/DTD/svg11.dtd">
<svg version="1.1" id="Layer_1" xmlns="http://www.w3.org/2000/svg" xmlns:xlink="http://www.w3.org/1999/xlink" x="0px" y="0px"
	 width="42px" height="42px" viewBox="0 0 42 42" enable-background="new 0 0 42 42" xml:space="preserve">
<g>
	<g>
		<path fill="#FFFFFF" d="M5.866,38.199c-0.968,0-1.878-0.377-2.562-1.062c-0.685-0.684-1.062-1.594-1.062-2.562
			c0-0.968,0.377-1.878,1.062-2.563l7.666-7.665l5.125,5.126l-7.665,7.665C7.744,37.822,6.834,38.199,5.866,38.199z M10.968,27.175
			l-6.251,6.251c-0.307,0.308-0.476,0.716-0.476,1.149s0.169,0.842,0.476,1.148c0.614,0.613,1.684,0.613,2.297,0l6.251-6.251
			L10.968,27.175z"/>
	</g>
	<g>
		<path fill="#FFFFFF" d="M13.288,28.152c-0.256,0-0.512-0.098-0.707-0.293c-0.391-0.391-0.391-1.023,0-1.414l1.612-1.611
			l-6.715-6.716c-1.849-1.849-4.422-6.269-0.928-9.765l1.856-1.856c0.391-0.39,1.023-0.39,1.414,0l2.783,2.783
			c0.391,0.391,0.391,1.024,0,1.414c-0.391,0.391-1.023,0.391-1.414,0L9.113,8.619L7.964,9.768c-2.969,2.97,0.768,6.775,0.928,6.936
			l7.422,7.423c0.188,0.188,0.293,0.442,0.293,0.707c0,0.266-0.105,0.52-0.293,0.707l-2.319,2.318
			C13.8,28.055,13.544,28.152,13.288,28.152z"/>
	</g>
	<g>
		<path fill="#FFFFFF" d="M27.668,31.082c-1.07,0-2.075-0.415-2.827-1.168L10.527,15.6c-1.56-1.559-1.56-4.097,0-5.657l1.325-1.324
			c0.753-0.753,1.757-1.168,2.829-1.168c1.07,0,2.075,0.415,2.828,1.168l14.313,14.314c0.753,0.753,1.168,1.758,1.168,2.828
			c0,1.071-0.415,2.076-1.168,2.828l-1.324,1.325C29.743,30.667,28.738,31.082,27.668,31.082z M14.68,9.451
			c-0.537,0-1.039,0.207-1.415,0.583l-1.325,1.324c-0.779,0.78-0.779,2.049,0,2.829L26.255,28.5c0.751,0.751,2.076,0.75,2.828,0
			l1.324-1.325c0.375-0.375,0.582-0.877,0.582-1.413c0-0.537-0.207-1.039-0.582-1.415L16.094,10.033
			C15.718,9.658,15.216,9.451,14.68,9.451z"/>
	</g>
	<g>
		<path fill="#FFFFFF" d="M24.885,13c0,0-0.001,0-0.002,0c-0.792,0-1.537-0.331-2.097-0.893c-0.56-0.56-0.869-1.316-0.869-2.108
			c0-0.793,0.309-1.544,0.87-2.105l0.462-0.465C23.434,7.245,23.534,7,23.534,6.741c0-0.258-0.101-0.501-0.283-0.683
			c-0.367-0.368-1.004-0.368-1.369-0.001L18.17,9.767l-1.414-1.414l3.711-3.711c1.12-1.121,3.077-1.122,4.198,0
			c0.56,0.558,0.868,1.303,0.869,2.096c0.001,0.793-0.309,1.54-0.87,2.101l-0.462,0.463c-0.185,0.184-0.285,0.426-0.285,0.685
			c0,0.259,0.102,0.502,0.284,0.685c0.183,0.184,0.426,0.284,0.684,0.284l0,0c0.259,0,0.502-0.101,0.686-0.284l1.855-1.855
			l1.414,1.414l-1.855,1.877C26.424,12.669,25.678,13,24.885,13z"/>
	</g>
	<g>
		<path fill="#FFFFFF" d="M31.623,13.014L30.209,11.6c0.377-0.377,0.377-0.992,0-1.369c-0.183-0.184-0.426-0.284-0.684-0.284l0,0
			c-0.259,0-0.502,0.101-0.686,0.284l-1.414-1.387C27.986,8.282,28.732,8,29.525,8c0,0,0.001,0,0.002,0
			c0.792,0,1.537,0.283,2.097,0.845C32.78,10.001,32.78,11.857,31.623,13.014z"/>
	</g>
	<g>
		<path fill="#FFFFFF" d="M32.086,23.684l-1.414-1.414l6.496-6.495c0.183-0.183,0.283-0.426,0.283-0.684s-0.101-0.501-0.283-0.684
			c-0.184-0.184-0.427-0.285-0.685-0.285h-0.001c-0.258,0-0.5,0.101-0.683,0.283l-1.416-1.412c0.56-0.562,1.305-0.871,2.099-0.871
			c0,0,0,0,0.001,0c0.793,0,1.538,0.309,2.1,0.871c0.56,0.559,0.868,1.305,0.868,2.098s-0.309,1.539-0.869,2.099L32.086,23.684z"/>
	</g>
	<g>
		<path fill="#FFFFFF" d="M30.452,18.523c-0.793,0-1.538-0.309-2.1-0.871c-0.561-0.56-0.869-1.306-0.869-2.099
			c0-0.792,0.31-1.538,0.871-2.098l1.854-1.855l1.414,1.414l-1.855,1.856c-0.184,0.183-0.284,0.425-0.284,0.684
			s0.101,0.501,0.284,0.684c0.367,0.368,1.003,0.367,1.368,0.001l3.249-3.247l1.414,1.415l-3.248,3.246
			C31.99,18.214,31.245,18.523,30.452,18.523z"/>
	</g>
</g>
</svg>
