<?xml version="1.0" encoding="utf-8"?>
<!-- Generator: Adobe Illustrator 16.0.0, SVG Export Plug-In . SVG Version: 6.00 Build 0)  -->
<!DOCTYPE svg PUBLIC "-//W3C//DTD SVG 1.1//EN" "http://www.w3.org/Graphics/SVG/1.1/DTD/svg11.dtd">
<svg version="1.1" id="Layer_1" xmlns="http://www.w3.org/2000/svg" xmlns:xlink="http://www.w3.org/1999/xlink" x="0px" y="0px"
	 width="42px" height="42px" viewBox="0 0 42 42" enable-background="new 0 0 42 42" xml:space="preserve">
<g>
	<g>
		<path fill="#FFFFFF" d="M27.482,38.046H14.654C8.384,38.046,5,31.255,5,24.864c0-0.553,0.448-1,1-1s1,0.447,1,1
			c0,5.421,2.683,11.182,7.654,11.182h12.828c4.936,0,7.518-5.534,7.518-11c0-0.553,0.447-1,1-1s1,0.447,1,1
			C37,31.506,33.73,38.046,27.482,38.046z"/>
	</g>
	<g>
		<rect x="4" y="23.046" fill="#FFFFFF" width="34" height="2"/>
	</g>
	<g>
		<path fill="#FFFFFF" d="M9.21,39.009c-0.171,0-0.344-0.044-0.502-0.136c-0.478-0.278-0.639-0.89-0.361-1.367l1.156-1.986
			c0.278-0.478,0.89-0.638,1.367-0.361c0.478,0.278,0.639,0.89,0.361,1.367l-1.156,1.986C9.89,38.831,9.554,39.009,9.21,39.009z"/>
	</g>
	<g>
		<path fill="#FFFFFF" d="M32.927,39.009c-0.345,0-0.68-0.178-0.865-0.497l-1.156-1.986c-0.277-0.478-0.116-1.089,0.361-1.367
			c0.477-0.277,1.09-0.117,1.367,0.361l1.156,1.986c0.277,0.478,0.116,1.089-0.361,1.367C33.271,38.965,33.098,39.009,32.927,39.009
			z"/>
	</g>
	<g>
		<path fill="#FFFFFF" d="M36,24.39c-0.553,0-1-0.447-1-1V8.235c0-1.789-1.455-3.244-3.244-3.244c-1.46,0-2.65,1.08-3.861,3.502
			c-0.247,0.494-0.848,0.695-1.342,0.447c-0.494-0.247-0.694-0.848-0.447-1.342c0.989-1.978,2.65-4.607,5.65-4.607
			C34.647,2.991,37,5.344,37,8.235V23.39C37,23.942,36.553,24.39,36,24.39z"/>
	</g>
	<g>
		<path fill="#FFFFFF" d="M29.352,14.546c-0.113,0-0.229-0.02-0.342-0.061c-0.52-0.188-0.787-0.763-0.598-1.282
			c0.254-0.699,0.293-1.453,0.107-2.069c-0.094-0.308-0.331-0.854-0.873-1.051L25.24,9.208c-0.905-0.33-2.097,0.537-2.592,1.896
			c-0.188,0.519-0.765,0.787-1.282,0.597c-0.519-0.189-0.786-0.763-0.597-1.282c0.882-2.419,3.191-3.807,5.155-3.091l2.405,0.875
			c1.009,0.367,1.756,1.203,2.104,2.352c0.313,1.036,0.263,2.22-0.143,3.333C30.144,14.294,29.76,14.546,29.352,14.546z"/>
	</g>
	<g>
		<path fill="#FFFFFF" d="M30.434,15.177c-0.113,0-0.229-0.02-0.342-0.061l-9.881-3.596c-0.519-0.189-0.787-0.763-0.598-1.282
			c0.189-0.52,0.765-0.787,1.282-0.598l9.881,3.596c0.52,0.189,0.787,0.763,0.598,1.282C31.226,14.925,30.842,15.177,30.434,15.177z
			"/>
	</g>
	<g>
		<rect x="14" y="28" fill="#FFFFFF" width="21" height="2"/>
	</g>
</g>
</svg>
