<?xml version="1.0" encoding="utf-8"?>
<!-- Generator: Adobe Illustrator 16.0.0, SVG Export Plug-In . SVG Version: 6.00 Build 0)  -->
<!DOCTYPE svg PUBLIC "-//W3C//DTD SVG 1.1//EN" "http://www.w3.org/Graphics/SVG/1.1/DTD/svg11.dtd">
<svg version="1.1" id="Layer_1" xmlns="http://www.w3.org/2000/svg" xmlns:xlink="http://www.w3.org/1999/xlink" x="0px" y="0px"
	 width="42px" height="42px" viewBox="0 0 42 42" enable-background="new 0 0 42 42" xml:space="preserve">
<g>
	<g>
		<path fill="#FFFFFF" d="M33.169,6.013l6.244,24H2.536l5.75-24H33.169 M34.715,4.013H6.708L0,32.013h42L34.715,4.013L34.715,4.013z
			"/>
	</g>
	<g>
		
			<rect x="23.013" y="5.145" transform="matrix(0.974 0.2265 -0.2265 0.974 4.7816 -4.9627)" fill="#FFFFFF" width="2" height="26.413"/>
	</g>
	<g>
		
			<rect x="30.013" y="4.63" transform="matrix(0.974 0.2266 -0.2266 0.974 4.8495 -6.5647)" fill="#FFFFFF" width="1.999" height="26.413"/>
	</g>
	<g>
		
			<rect x="16.06" y="5.145" transform="matrix(0.974 0.2265 -0.2265 0.974 4.6008 -3.3876)" fill="#FFFFFF" width="2" height="26.413"/>
	</g>
	<g>
		<rect x="13" y="13" fill="#FFFFFF" width="19" height="2"/>
	</g>
	<g>
		<rect x="9" y="22" fill="#FFFFFF" width="21" height="2"/>
	</g>
	<g>
		<rect y="36" fill="#FFFFFF" width="42" height="2"/>
	</g>
</g>
</svg>
