<?xml version="1.0" encoding="utf-8"?>
<!-- Generator: Adobe Illustrator 16.0.0, SVG Export Plug-In . SVG Version: 6.00 Build 0)  -->
<!DOCTYPE svg PUBLIC "-//W3C//DTD SVG 1.1//EN" "http://www.w3.org/Graphics/SVG/1.1/DTD/svg11.dtd">
<svg version="1.1" id="Layer_1" xmlns="http://www.w3.org/2000/svg" xmlns:xlink="http://www.w3.org/1999/xlink" x="0px" y="0px"
	 width="42px" height="42px" viewBox="0 0 42 42" enable-background="new 0 0 42 42" xml:space="preserve">
<g>
	<g>
		<path fill="#FFFFFF" d="M20.227,23h-3.855c-0.552,0-1-0.447-1-1c0-0.552,0.448-1,1-1h2.688c-0.099-1.344,0.009-3.225,0.537-4.408
			c0.225-0.505,0.815-0.732,1.321-0.505c0.504,0.225,0.73,0.816,0.505,1.321c-0.528,1.183-0.43,3.758-0.259,4.245
			c0.108,0.306,0.063,0.653-0.124,0.918S20.551,23,20.227,23z"/>
	</g>
	<g>
		<path fill="#FFFFFF" d="M19.824,38H3.195c-0.929,0-1.685-0.763-1.685-1.699V31.7c0-0.648,0.441-1.111,0.96-1.389
			C2.652,30.119,2.91,30,3.195,30h16.629c0.93,0,1.686,0.763,1.686,1.7v4.601C21.51,37.237,20.753,38,19.824,38z M3.51,36h16v-4
			H3.61c-0.022,0.003-0.06,0.015-0.101,0.03V36z"/>
	</g>
	<g>
		<path fill="#FFFFFF" d="M30.317,16H28.51c-0.553,0-1-0.448-1-1s0.447-1,1-1h1.438c0.469-0.442,1.338-1.362,1.562-1.749V9.749
			C31.287,9.361,30.417,8.441,29.949,8H28.51c-0.553,0-1-0.448-1-1s0.447-1,1-1h1.808c0.806,0,3.192,2.694,3.192,3.604v2.794
			C33.51,13.307,31.123,16,30.317,16z"/>
	</g>
	<g>
		<path fill="#FFFFFF" d="M3.51,32c-0.094,0-0.19-0.014-0.285-0.041c-0.53-0.157-0.831-0.715-0.674-1.244l3.23-10.871
			c0.461-1.28,0.012-1.619-1.137-2.333l-0.151-0.094c-0.23-0.144-0.47-0.272-0.704-0.398C2.827,16.5,1.51,15.79,1.51,14.148V7.422
			C1.51,5.535,3.086,4,5.023,4h20.973c1.938,0,3.514,1.535,3.514,3.422v6.727c0,1.893-1.187,3.852-3.173,3.852H19.6
			c-0.901,0-1.969,0.654-2.197,1.346c-0.084,0.255-0.283,0.776-0.535,1.431c-0.541,1.407-1.807,4.703-1.807,5.436
			c0,1.322,1.044,3.469,1.895,3.893c0.494,0.246,0.695,0.847,0.449,1.341c-0.246,0.494-0.846,0.697-1.341,0.448
			c-1.833-0.913-3.002-3.975-3.002-5.682c0-0.928,0.682-2.879,1.94-6.153c0.236-0.613,0.423-1.1,0.502-1.339
			C16.057,17.04,18.061,16,19.6,16h6.737c0.691,0,1.173-0.976,1.173-1.852V7.422C27.51,6.638,26.831,6,25.996,6H5.023
			C4.189,6,3.51,6.638,3.51,7.422v6.727c0,0.389,0.277,0.597,1.228,1.109c0.271,0.146,0.548,0.296,0.816,0.464L5.7,15.812
			c1.045,0.649,2.992,1.859,1.98,4.657L4.468,31.285C4.339,31.719,3.941,32,3.51,32z"/>
	</g>
	<g>
		<path fill="#FFFFFF" d="M39.49,12h-6.2c-0.553,0-1-0.448-1-1s0.447-1,1-1h6.2c0.553,0,1,0.448,1,1S40.043,12,39.49,12z"/>
	</g>
	<g>
		<path fill="#FFFFFF" d="M7.227,13.154c-0.204,0-0.409-0.062-0.586-0.191c-0.447-0.324-0.546-0.95-0.222-1.396l2.438-3.359
			c0.324-0.446,0.95-0.546,1.396-0.222c0.447,0.324,0.546,0.95,0.222,1.396l-2.438,3.359C7.842,13.011,7.537,13.154,7.227,13.154z"
			/>
	</g>
	<g>
		<path fill="#FFFFFF" d="M11.301,13.154c-0.204,0-0.409-0.062-0.586-0.191c-0.447-0.324-0.546-0.95-0.222-1.396l2.438-3.359
			c0.324-0.446,0.95-0.546,1.396-0.222c0.447,0.324,0.546,0.95,0.222,1.396l-2.438,3.359C11.916,13.011,11.61,13.154,11.301,13.154z
			"/>
	</g>
</g>
</svg>
