<?xml version="1.0" encoding="utf-8"?>
<!-- Generator: Adobe Illustrator 16.0.0, SVG Export Plug-In . SVG Version: 6.00 Build 0)  -->
<!DOCTYPE svg PUBLIC "-//W3C//DTD SVG 1.1//EN" "http://www.w3.org/Graphics/SVG/1.1/DTD/svg11.dtd">
<svg version="1.1" id="Layer_1" xmlns="http://www.w3.org/2000/svg" xmlns:xlink="http://www.w3.org/1999/xlink" x="0px" y="0px"
	 width="60px" height="60px" viewBox="0 0 60 60" enable-background="new 0 0 60 60" xml:space="preserve">
<g>
	<g>
		<path fill="#008DAF" d="M60,57c0,1.65-1.35,3-3,3H3c-1.65,0-3-1.35-3-3V3c0-1.65,1.35-3,3-3h54c1.65,0,3,1.35,3,3V57z"/>
	</g>
</g>
<g>
	<path fill="none" stroke="#FFFFFF" stroke-width="2" stroke-miterlimit="10" d="M39.797,39.71
		c3.746-2.396,6.303-6.193,6.303-10.378c0-3.846-1.814-7.379-5.02-9.784"/>
	<path fill="none" stroke="#FFFFFF" stroke-width="2" stroke-miterlimit="10" d="M25.104,40.805c1.751,0.53,3.435,0.587,5.418,0.587
		c1.769,0,3.569-0.15,5.16-0.587"/>
	<path fill="none" stroke="#FFFFFF" stroke-width="2" stroke-linejoin="round" stroke-miterlimit="10" d="M26.869,16.575
		c-1.697,0.285-3.388,0.759-4.752,1.388L18,15.632v4.646C17,21.933,15.75,25,15.621,27h-1.784C12.387,27,11,27.681,11,28.617v3.529
		C11,34.567,12.387,35,13.322,35h3.252c0.462,1,1.786,3.339,3.668,4.665"/>
	<path fill="none" stroke="#FFFFFF" stroke-width="2" stroke-miterlimit="10" d="M27.73,21.472c0,0,6.758-1.212,11.479,3.508"/>
	<path fill="none" stroke="#FFFFFF" stroke-width="2" stroke-miterlimit="10" d="M36.107,22.353
		c1.068-0.632,1.838-1.742,1.984-3.072c0.246-2.245-1.373-4.265-3.619-4.512c-2.243-0.247-4.264,1.371-4.511,3.617
		c-0.101,0.913,0.108,1.792,0.542,2.525"/>
	
		<line fill="none" stroke="#FFFFFF" stroke-width="2" stroke-linecap="round" stroke-miterlimit="10" x1="20" y1="45" x2="20" y2="39"/>
	
		<line fill="none" stroke="#FFFFFF" stroke-width="2" stroke-linecap="round" stroke-miterlimit="10" x1="25" y1="45" x2="25" y2="40"/>
	
		<line fill="none" stroke="#FFFFFF" stroke-width="2" stroke-linecap="round" stroke-miterlimit="10" x1="36" y1="45" x2="36" y2="40"/>
	
		<line fill="none" stroke="#FFFFFF" stroke-width="2" stroke-linecap="round" stroke-miterlimit="10" x1="40" y1="45" x2="40" y2="39"/>
	<line fill="none" stroke="#FFFFFF" stroke-width="2" stroke-miterlimit="10" x1="16" y1="45" x2="44" y2="45"/>
	<path fill="none" stroke="#FFFFFF" stroke-width="2" stroke-linecap="round" stroke-miterlimit="10" d="M46.532,29.601
		c0,0,2.386,0.864,2.386-1.411"/>
	
		<line fill="none" stroke="#FFFFFF" stroke-width="2" stroke-linecap="round" stroke-miterlimit="10" x1="21" y1="26" x2="24" y2="26"/>
</g>
</svg>
