<?xml version="1.0" encoding="utf-8"?>
<!-- Generator: Adobe Illustrator 16.0.0, SVG Export Plug-In . SVG Version: 6.00 Build 0)  -->
<!DOCTYPE svg PUBLIC "-//W3C//DTD SVG 1.1//EN" "http://www.w3.org/Graphics/SVG/1.1/DTD/svg11.dtd">
<svg version="1.1" id="Layer_1" xmlns="http://www.w3.org/2000/svg" xmlns:xlink="http://www.w3.org/1999/xlink" x="0px" y="0px"
	 width="60px" height="60px" viewBox="0 0 60 60" enable-background="new 0 0 60 60" xml:space="preserve">
<g>
	<g>
		<path fill="#008DAF" d="M60,57c0,1.65-1.35,3-3,3H3c-1.65,0-3-1.35-3-3V3c0-1.65,1.35-3,3-3h54c1.65,0,3,1.35,3,3V57z"/>
	</g>
</g>
<g>
	<g>
		<path fill="#FFFFFF" d="M34,49H11V26h23V49z M13,47h19V28H13V47z"/>
	</g>
	<g>
		<path fill="#FFFFFF" d="M41,41h-8c-0.553,0-1-0.447-1-1s0.447-1,1-1h6V21H21v6c0,0.552-0.448,1-1,1s-1-0.448-1-1v-8h22V41z"/>
	</g>
	<g>
		<path fill="#FFFFFF" d="M49,34h-9c-0.553,0-1-0.447-1-1s0.447-1,1-1h7V13H28v7c0,0.552-0.448,1-1,1s-1-0.448-1-1v-9h23V34z"/>
	</g>
	<g>
		<path fill="#FFFFFF" d="M34,49H11V26h23V49z M13,47h19V28H13V47z"/>
	</g>
	<g>
		<path fill="#FFFFFF" d="M40.363,20.637c-0.256,0-0.512-0.098-0.707-0.293c-0.391-0.391-0.391-1.023,0-1.414l7.637-7.637
			c0.391-0.391,1.023-0.391,1.414,0s0.391,1.023,0,1.414l-7.637,7.637C40.875,20.539,40.619,20.637,40.363,20.637z"/>
	</g>
	<g>
		<path fill="#FFFFFF" d="M32.182,20.091c-0.256,0-0.512-0.098-0.707-0.293c-0.391-0.391-0.391-1.024,0-1.414l7.092-7.091
			c0.391-0.391,1.023-0.391,1.414,0s0.391,1.024,0,1.414l-7.092,7.091C32.693,19.993,32.438,20.091,32.182,20.091z"/>
	</g>
	<g>
		<path fill="#FFFFFF" d="M40.363,29.363c-0.256,0-0.512-0.098-0.707-0.293c-0.391-0.391-0.391-1.024,0-1.414l7.637-7.636
			c0.391-0.391,1.023-0.391,1.414,0s0.391,1.024,0,1.414L41.07,29.07C40.875,29.266,40.619,29.363,40.363,29.363z"/>
	</g>
	<g>
		<path fill="#FFFFFF" d="M23,49c-0.552,0-1-0.447-1-1V28c0-0.552,0.448-1,1-1s1,0.448,1,1v20C24,48.553,23.552,49,23,49z"/>
	</g>
	<g>
		<path fill="#FFFFFF" d="M27,34c-0.552,0-1-0.447-1-1v-2c0-0.553,0.448-1,1-1s1,0.447,1,1v2C28,33.553,27.552,34,27,34z"/>
	</g>
	<g>
		<path fill="#FFFFFF" d="M19,34c-0.552,0-1-0.447-1-1v-2c0-0.553,0.448-1,1-1s1,0.447,1,1v2C20,33.553,19.552,34,19,34z"/>
	</g>
</g>
</svg>
