<?xml version="1.0" encoding="utf-8"?>
<!-- Generator: Adobe Illustrator 16.0.0, SVG Export Plug-In . SVG Version: 6.00 Build 0)  -->
<!DOCTYPE svg PUBLIC "-//W3C//DTD SVG 1.1//EN" "http://www.w3.org/Graphics/SVG/1.1/DTD/svg11.dtd">
<svg version="1.1" id="Layer_1" xmlns="http://www.w3.org/2000/svg" xmlns:xlink="http://www.w3.org/1999/xlink" x="0px" y="0px"
	 width="60px" height="60px" viewBox="0 0 60 60" enable-background="new 0 0 60 60" xml:space="preserve">
<g>
	<g>
		<path fill="#008DAF" d="M60,57c0,1.65-1.35,3-3,3H3c-1.65,0-3-1.35-3-3V3c0-1.65,1.35-3,3-3h54c1.65,0,3,1.35,3,3V57z"/>
	</g>
</g>
<g>
	<g>
		<rect x="18" y="12" fill="#FFFFFF" width="23" height="2"/>
	</g>
	<g>
		<rect x="18" y="16" fill="#FFFFFF" width="23" height="2"/>
	</g>
	<g>
		<path fill="#FFFFFF" d="M26.813,30.875c-0.31,0-0.864-0.143-1.06-0.412L20,22.887V17c0-0.552,0.448-1,1-1s1,0.448,1,1v5.238
			l5.372,7.049c0.325,0.447,0.351,1.072-0.096,1.396C27.098,30.812,27.017,30.875,26.813,30.875z"/>
	</g>
	<g>
		<path fill="#FFFFFF" d="M33.187,30.875c-0.204,0-0.409-0.062-0.587-0.191c-0.446-0.324-0.796-0.95-0.471-1.396L37,22.238V17
			c0-0.552,0.447-1,1-1s1,0.448,1,1v5.887l-5.254,7.576C33.551,30.732,33.496,30.875,33.187,30.875z"/>
	</g>
	<g>
		<rect x="18" y="46" fill="#FFFFFF" width="23" height="2"/>
	</g>
	<g>
		<rect x="18" y="42" fill="#FFFFFF" width="23" height="2"/>
	</g>
	<g>
		<path fill="#FFFFFF" d="M38,44c-0.553,0-1-0.447-1-1v-5.237l-4.871-7.05c-0.325-0.447-0.101-1.072,0.346-1.397
			c0.447-0.325,0.886-0.225,1.209,0.221L39,37.112V43C39,43.553,38.553,44,38,44z"/>
	</g>
	<g>
		<path fill="#FFFFFF" d="M21,44c-0.552,0-1-0.447-1-1v-5.888l5.753-7.575c0.325-0.445,1.075-0.545,1.522-0.221
			c0.447,0.325,0.358,0.95,0.034,1.397L22,37.763V43C22,43.553,21.552,44,21,44z"/>
	</g>
	<g>
		<rect x="23" y="25" fill="#FFFFFF" width="13" height="2"/>
	</g>
</g>
</svg>
