<?xml version="1.0" encoding="utf-8"?>
<!-- Generator: Adobe Illustrator 16.0.0, SVG Export Plug-In . SVG Version: 6.00 Build 0)  -->
<!DOCTYPE svg PUBLIC "-//W3C//DTD SVG 1.1//EN" "http://www.w3.org/Graphics/SVG/1.1/DTD/svg11.dtd">
<svg version="1.1" id="Layer_1" xmlns="http://www.w3.org/2000/svg" xmlns:xlink="http://www.w3.org/1999/xlink" x="0px" y="0px"
	 width="60px" height="60px" viewBox="0 0 60 60" enable-background="new 0 0 60 60" xml:space="preserve">
<g>
	<g>
		<path fill="#008DAF" d="M60,57c0,1.65-1.35,3-3,3H3c-1.65,0-3-1.35-3-3V3c0-1.65,1.35-3,3-3h54c1.65,0,3,1.35,3,3V57z"/>
	</g>
</g>
<g>
	<g>
		<path fill="#FFFFFF" d="M49,43H11V18h38V43z M13,41h34V20H13V41z"/>
	</g>
	<g>
		<path fill="#FFFFFF" d="M49,48H11v-7h38V48z M13,46h34v-3H13V46z"/>
	</g>
	<g>
		<path fill="#FFFFFF" d="M30,43c-0.552,0-1-0.447-1-1V19c0-0.552,0.448-1,1-1c0.553,0,1,0.448,1,1v23C31,42.553,30.553,43,30,43z"
			/>
	</g>
	<g>
		<path fill="#FFFFFF" d="M30,32H12c-0.552,0-1-0.447-1-1s0.448-1,1-1h18c0.553,0,1,0.447,1,1S30.553,32,30,32z"/>
	</g>
	<g>
		<path fill="#FFFFFF" d="M22,24h-2c-0.552,0-1-0.448-1-1s0.448-1,1-1h2c0.552,0,1,0.448,1,1S22.552,24,22,24z"/>
	</g>
	<g>
		<path fill="#FFFFFF" d="M22,36h-2c-0.552,0-1-0.447-1-1s0.448-1,1-1h2c0.552,0,1,0.447,1,1S22.552,36,22,36z"/>
	</g>
	<g>
		<path fill="#FFFFFF" d="M37,24h-3c-0.553,0-1-0.448-1-1s0.447-1,1-1h3c0.553,0,1,0.448,1,1S37.553,24,37,24z"/>
	</g>
	<g>
		<path fill="#FFFFFF" d="M39,19c-0.553,0-1-0.448-1-1v-5.146C38,11.227,39.169,10,40.72,10c1.665,0,2.921,1.138,2.921,2.646
			c0,0.552-0.447,1-1,1s-1-0.448-1-1c0-0.511-0.603-0.646-0.921-0.646C40.223,12,40,12.429,40,12.854V18C40,18.552,39.553,19,39,19z
			"/>
	</g>
	<g>
		<path fill="#FFFFFF" d="M38.732,19.414c-0.256,0-0.512-0.098-0.707-0.293c-0.391-0.391-0.391-1.023,0-1.414l2.316-2.316
			c0.391-0.391,1.023-0.391,1.414,0s0.391,1.023,0,1.414l-2.316,2.316C39.244,19.316,38.988,19.414,38.732,19.414z"/>
	</g>
</g>
</svg>
