<?xml version="1.0" encoding="utf-8"?>
<!-- Generator: Adobe Illustrator 16.0.0, SVG Export Plug-In . SVG Version: 6.00 Build 0)  -->
<!DOCTYPE svg PUBLIC "-//W3C//DTD SVG 1.1//EN" "http://www.w3.org/Graphics/SVG/1.1/DTD/svg11.dtd">
<svg version="1.1" id="Layer_1" xmlns="http://www.w3.org/2000/svg" xmlns:xlink="http://www.w3.org/1999/xlink" x="0px" y="0px"
	 width="60px" height="60px" viewBox="0 0 60 60" enable-background="new 0 0 60 60" xml:space="preserve">
<g>
	<g>
		<path fill="#008DAF" d="M60,57c0,1.65-1.35,3-3,3H3c-1.65,0-3-1.35-3-3V3c0-1.65,1.35-3,3-3h54c1.65,0,3,1.35,3,3V57z"/>
	</g>
</g>
<g>
	<g>
		<path fill="#FFFFFF" d="M35,49H12V26h23V49z M14,47h19V28H14V47z"/>
	</g>
	<g>
		<path fill="#FFFFFF" d="M35,49H12V26h23V49z M14,47h19V28H14V47z"/>
	</g>
	<g>
		<path fill="#FFFFFF" d="M24,49c-0.552,0-1-0.447-1-1V28c0-0.552,0.448-1,1-1s1,0.448,1,1v20C25,48.553,24.552,49,24,49z"/>
	</g>
	<g>
		<path fill="#FFFFFF" d="M28,34c-0.552,0-1-0.447-1-1v-2c0-0.553,0.448-1,1-1s1,0.447,1,1v2C29,33.553,28.552,34,28,34z"/>
	</g>
	<g>
		<path fill="#FFFFFF" d="M38,19c-0.553,0-1-0.448-1-1v-2c0-0.552,0.447-1,1-1s1,0.448,1,1v2C39,18.552,38.553,19,38,19z"/>
	</g>
	<g>
		<path fill="#FFFFFF" d="M20,34c-0.552,0-1-0.447-1-1v-2c0-0.553,0.448-1,1-1s1,0.447,1,1v2C21,33.553,20.552,34,20,34z"/>
	</g>
	<g>
		<path fill="#FFFFFF" d="M49,49H33V11h16V49z M35,47h12V13H35V47z"/>
	</g>
	<g>
		<path fill="#FFFFFF" d="M30,20H12v-9h18V20z M14,18h14v-5H14V18z"/>
	</g>
</g>
</svg>
