<?xml version="1.0" encoding="utf-8"?>
<!-- Generator: Adobe Illustrator 16.0.0, SVG Export Plug-In . SVG Version: 6.00 Build 0)  -->
<!DOCTYPE svg PUBLIC "-//W3C//DTD SVG 1.1//EN" "http://www.w3.org/Graphics/SVG/1.1/DTD/svg11.dtd">
<svg version="1.1" id="Layer_1" xmlns="http://www.w3.org/2000/svg" xmlns:xlink="http://www.w3.org/1999/xlink" x="0px" y="0px"
	 width="60px" height="60px" viewBox="0 0 60 60" enable-background="new 0 0 60 60" xml:space="preserve">
<g>
	<g>
		<path fill="#008DAF" d="M60,57c0,1.65-1.35,3-3,3H3c-1.65,0-3-1.35-3-3V3c0-1.65,1.35-3,3-3h54c1.65,0,3,1.35,3,3V57z"/>
	</g>
</g>
<g>
	<g>
		<path fill="#FFFFFF" d="M49,26H11V13h38V26z M13,24h34v-9H13V24z"/>
	</g>
	<g>
		<path fill="#FFFFFF" d="M21,19h-4c-0.552,0-1-0.448-1-1s0.448-1,1-1h4c0.552,0,1,0.448,1,1S21.552,19,21,19z"/>
	</g>
	<g>
		<path fill="#FFFFFF" d="M27,22h-4c-0.552,0-1-0.448-1-1s0.448-1,1-1h4c0.552,0,1,0.448,1,1S27.552,22,27,22z"/>
	</g>
	<g>
		<path fill="#FFFFFF" d="M35,19h-4c-0.552,0-1-0.448-1-1s0.448-1,1-1h4c0.553,0,1,0.448,1,1S35.553,19,35,19z"/>
	</g>
	<g>
		<path fill="#FFFFFF" d="M41,22h-4c-0.553,0-1-0.448-1-1s0.447-1,1-1h4c0.553,0,1,0.448,1,1S41.553,22,41,22z"/>
	</g>
	<g>
		<path fill="#FFFFFF" d="M49,37H11V24h38V37z M13,35h34v-9H13V35z"/>
	</g>
	<g>
		<path fill="#FFFFFF" d="M21,30h-4c-0.552,0-1-0.448-1-1s0.448-1,1-1h4c0.552,0,1,0.448,1,1S21.552,30,21,30z"/>
	</g>
	<g>
		<path fill="#FFFFFF" d="M27,33h-4c-0.552,0-1-0.447-1-1s0.448-1,1-1h4c0.552,0,1,0.447,1,1S27.552,33,27,33z"/>
	</g>
	<g>
		<path fill="#FFFFFF" d="M35,30h-4c-0.552,0-1-0.448-1-1s0.448-1,1-1h4c0.553,0,1,0.448,1,1S35.553,30,35,30z"/>
	</g>
	<g>
		<path fill="#FFFFFF" d="M41,33h-4c-0.553,0-1-0.447-1-1s0.447-1,1-1h4c0.553,0,1,0.447,1,1S41.553,33,41,33z"/>
	</g>
	<g>
		<path fill="#FFFFFF" d="M49,48H11V35h38V48z M13,46h34v-9H13V46z"/>
	</g>
	<g>
		<path fill="#FFFFFF" d="M21,41h-4c-0.552,0-1-0.447-1-1s0.448-1,1-1h4c0.552,0,1,0.447,1,1S21.552,41,21,41z"/>
	</g>
	<g>
		<path fill="#FFFFFF" d="M27,44h-4c-0.552,0-1-0.447-1-1s0.448-1,1-1h4c0.552,0,1,0.447,1,1S27.552,44,27,44z"/>
	</g>
	<g>
		<path fill="#FFFFFF" d="M35,41h-4c-0.552,0-1-0.447-1-1s0.448-1,1-1h4c0.553,0,1,0.447,1,1S35.553,41,35,41z"/>
	</g>
	<g>
		<path fill="#FFFFFF" d="M41,44h-4c-0.553,0-1-0.447-1-1s0.447-1,1-1h4c0.553,0,1,0.447,1,1S41.553,44,41,44z"/>
	</g>
</g>
</svg>
