<?xml version="1.0" encoding="utf-8"?>
<!-- Generator: Adobe Illustrator 16.0.0, SVG Export Plug-In . SVG Version: 6.00 Build 0)  -->
<!DOCTYPE svg PUBLIC "-//W3C//DTD SVG 1.1//EN" "http://www.w3.org/Graphics/SVG/1.1/DTD/svg11.dtd">
<svg version="1.1" id="Layer_1" xmlns="http://www.w3.org/2000/svg" xmlns:xlink="http://www.w3.org/1999/xlink" x="0px" y="0px"
	 width="60px" height="60px" viewBox="0 0 60 60" enable-background="new 0 0 60 60" xml:space="preserve">
<g>
	<g>
		<path fill="#008DAF" d="M60,57c0,1.65-1.35,3-3,3H3c-1.65,0-3-1.35-3-3V3c0-1.65,1.35-3,3-3h54c1.65,0,3,1.35,3,3V57z"/>
	</g>
</g>
<g>
	<g>
		<path fill="#FFFFFF" d="M33,48H12V27h21V48z M14,46h17V29H14V46z"/>
	</g>
	<g>
		<path fill="#FFFFFF" d="M40,41h-8c-0.553,0-1-0.447-1-1s0.447-1,1-1h6V22H21v6c0,0.552-0.448,1-1,1s-1-0.448-1-1v-8h21V41z"/>
	</g>
	<g>
		<path fill="#FFFFFF" d="M47,34h-8c-0.553,0-1-0.447-1-1s0.447-1,1-1h6V15H28v6c0,0.552-0.448,1-1,1s-1-0.448-1-1v-8h21V34z"/>
	</g>
	<g>
		<path fill="#FFFFFF" d="M17.5,35.5c-0.256,0-0.512-0.098-0.707-0.293c-0.391-0.391-0.391-1.023,0-1.414l3-3
			c0.391-0.391,1.023-0.391,1.414,0s0.391,1.023,0,1.414l-3,3C18.012,35.402,17.756,35.5,17.5,35.5z"/>
	</g>
	<g>
		<path fill="#FFFFFF" d="M25.5,43.5c-0.256,0-0.512-0.098-0.707-0.293c-0.391-0.391-0.391-1.023,0-1.414l3-3
			c0.391-0.391,1.023-0.391,1.414,0s0.391,1.023,0,1.414l-3,3C26.012,43.402,25.756,43.5,25.5,43.5z"/>
	</g>
	<g>
		<path fill="#FFFFFF" d="M17.5,43.5c-0.256,0-0.512-0.098-0.707-0.293c-0.391-0.391-0.391-1.023,0-1.414l2-2
			c0.391-0.391,1.023-0.391,1.414,0s0.391,1.023,0,1.414l-2,2C18.012,43.402,17.756,43.5,17.5,43.5z"/>
	</g>
	<g>
		<path fill="#FFFFFF" d="M22.5,38.5c-0.256,0-0.512-0.098-0.707-0.293c-0.391-0.391-0.391-1.023,0-1.414l2-2
			c0.391-0.391,1.023-0.391,1.414,0s0.391,1.023,0,1.414l-2,2C23.012,38.402,22.756,38.5,22.5,38.5z"/>
	</g>
	<g>
		<path fill="#FFFFFF" d="M27.5,33.5c-0.256,0-0.512-0.098-0.707-0.293c-0.391-0.391-0.391-1.023,0-1.414l2-2
			c0.391-0.391,1.023-0.391,1.414,0s0.391,1.023,0,1.414l-2,2C28.012,33.402,27.756,33.5,27.5,33.5z"/>
	</g>
</g>
</svg>
