<?xml version="1.0" encoding="utf-8"?>
<!-- Generator: Adobe Illustrator 16.0.0, SVG Export Plug-In . SVG Version: 6.00 Build 0)  -->
<!DOCTYPE svg PUBLIC "-//W3C//DTD SVG 1.1//EN" "http://www.w3.org/Graphics/SVG/1.1/DTD/svg11.dtd">
<svg version="1.1" id="Layer_1" xmlns="http://www.w3.org/2000/svg" xmlns:xlink="http://www.w3.org/1999/xlink" x="0px" y="0px"
	 width="60px" height="60px" viewBox="0 0 60 60" enable-background="new 0 0 60 60" xml:space="preserve">
<g>
	<g>
		<path fill="#008DAF" d="M60,57c0,1.65-1.35,3-3,3H3c-1.65,0-3-1.35-3-3V3c0-1.65,1.35-3,3-3h54c1.65,0,3,1.35,3,3V57z"/>
	</g>
</g>
<g>
	<g>
		<path fill="#FFFFFF" d="M15.783,37.769l-5.414-5.414l11.7-11.699l5.414,5.414L15.783,37.769z M13.197,32.354l2.586,2.586
			l8.871-8.871l-2.585-2.586L13.197,32.354z"/>
	</g>
	<g>
		<path fill="#FFFFFF" d="M24.925,36.626l-5.414-5.414l11.698-11.7l5.414,5.413L24.925,36.626z M22.34,31.212l2.585,2.586
			l8.871-8.873L31.21,22.34L22.34,31.212z"/>
	</g>
	<g>
		<path fill="#FFFFFF" d="M26.068,27.483l-5.414-5.414l11.699-11.701l5.413,5.415L26.068,27.483z M23.482,22.069l2.585,2.586
			l8.871-8.872l-2.585-2.586L23.482,22.069z"/>
	</g>
	<g>
		<polygon fill="#FFFFFF" points="35.21,26.339 29.796,20.926 35.646,15.076 37.06,16.49 32.624,20.926 35.21,23.511 40.217,18.506 
			41.631,19.92 		"/>
	</g>
	<g>
		<path fill="#FFFFFF" d="M23.782,45.769l-5.413-5.414l11.699-11.7l5.414,5.413L23.782,45.769z M21.197,40.354l2.585,2.586
			l8.872-8.873l-2.586-2.585L21.197,40.354z"/>
	</g>
	<g>
		<path fill="#FFFFFF" d="M32.924,44.625l-5.413-5.414l11.698-11.699l5.414,5.413L32.924,44.625z M30.339,39.211l2.585,2.586
			l8.871-8.872l-2.586-2.585L30.339,39.211z"/>
	</g>
	<g>
		<path fill="#FFFFFF" d="M34.067,35.481l-5.414-5.413l11.699-11.701l5.413,5.416L34.067,35.481z M31.481,30.068l2.586,2.585
			l8.87-8.87l-2.585-2.587L31.481,30.068z"/>
	</g>
	<g>
		<polygon fill="#FFFFFF" points="43.209,34.339 37.795,28.926 43.645,23.076 45.059,24.49 40.623,28.926 43.209,31.511 
			48.217,26.505 49.631,27.92 		"/>
	</g>
	<g>
		
			<rect x="29.067" y="42.028" transform="matrix(0.7071 0.7071 -0.7071 0.7071 41.3814 -7.7677)" fill="#FFFFFF" width="2" height="8.08"/>
	</g>
</g>
</svg>
