<?xml version="1.0" encoding="utf-8"?>
<!-- Generator: Adobe Illustrator 16.0.0, SVG Export Plug-In . SVG Version: 6.00 Build 0)  -->
<!DOCTYPE svg PUBLIC "-//W3C//DTD SVG 1.1//EN" "http://www.w3.org/Graphics/SVG/1.1/DTD/svg11.dtd">
<svg version="1.1" id="Layer_1" xmlns="http://www.w3.org/2000/svg" xmlns:xlink="http://www.w3.org/1999/xlink" x="0px" y="0px"
	 width="60px" height="60px" viewBox="0 0 60 60" enable-background="new 0 0 60 60" xml:space="preserve">
<g>
	<g>
		<path fill="#008DAF" d="M60,57c0,1.65-1.35,3-3,3H3c-1.65,0-3-1.35-3-3V3c0-1.65,1.35-3,3-3h54c1.65,0,3,1.35,3,3V57z"/>
	</g>
</g>
<g>
	<g>
		<path fill="#FFFFFF" d="M19.5,45c-3.584,0-6.5-2.243-6.5-5s2.916-5,6.5-5s6.5,2.243,6.5,5S23.084,45,19.5,45z M19.5,37
			c-2.439,0-4.5,1.374-4.5,3s2.061,3,4.5,3s4.5-1.374,4.5-3S21.939,37,19.5,37z"/>
	</g>
	<g>
		<path fill="#FFFFFF" d="M14,41c-0.552,0-1-0.447-1-1V15c0-2.757,2.916-5,6.5-5s6.5,2.243,6.5,5v24c0,0.553-0.448,1-1,1
			s-1-0.447-1-1V15c0-1.626-2.061-3-4.5-3S15,13.374,15,15v25C15,40.553,14.552,41,14,41z"/>
	</g>
	<g>
		<path fill="#FFFFFF" d="M21,41h-3c-0.552,0-1-0.447-1-1s0.448-1,1-1h3c0.552,0,1,0.447,1,1S21.552,41,21,41z"/>
	</g>
	<g>
		<path fill="#FFFFFF" d="M46,45H20c-0.552,0-1-0.447-1-1s0.448-1,1-1h25V20H25c-0.552,0-1-0.448-1-1s0.448-1,1-1h21
			c0.553,0,1,0.448,1,1v25C47,44.553,46.553,45,46,45z"/>
	</g>
	<g>
		<path fill="#FFFFFF" d="M28.999,39c-0.15,0-0.303-0.034-0.446-0.105c-0.494-0.247-0.694-0.848-0.447-1.342l1.741-3.48
			l-1.678-2.518c-0.224-0.336-0.224-0.773,0-1.109L29.798,28l-1.63-2.445c-0.306-0.459-0.182-1.081,0.277-1.387
			c0.458-0.307,1.081-0.183,1.387,0.277l2,3c0.224,0.336,0.224,0.773,0,1.109L30.202,31l1.63,2.445
			c0.199,0.299,0.223,0.681,0.062,1.002l-2,4C29.719,38.798,29.366,39,28.999,39z"/>
	</g>
	<g>
		<path fill="#FFFFFF" d="M33.999,39c-0.15,0-0.303-0.034-0.446-0.105c-0.494-0.247-0.694-0.848-0.447-1.342l1.74-3.48l-1.678-2.518
			c-0.224-0.336-0.224-0.773,0-1.109L34.798,28l-1.63-2.445c-0.307-0.459-0.183-1.081,0.277-1.387
			c0.461-0.307,1.08-0.183,1.387,0.277l2,3c0.224,0.336,0.224,0.773,0,1.109L35.202,31l1.63,2.445
			c0.199,0.299,0.223,0.681,0.062,1.002l-2,4C34.719,38.798,34.366,39,33.999,39z"/>
	</g>
	<g>
		<path fill="#FFFFFF" d="M38.999,39c-0.15,0-0.303-0.034-0.446-0.105c-0.494-0.247-0.694-0.848-0.447-1.342l1.74-3.48l-1.678-2.518
			c-0.224-0.336-0.224-0.773,0-1.109L39.798,28l-1.63-2.445c-0.307-0.459-0.183-1.081,0.277-1.387
			c0.461-0.307,1.081-0.183,1.387,0.277l2,3c0.224,0.336,0.224,0.773,0,1.109L40.202,31l1.63,2.445
			c0.199,0.299,0.223,0.681,0.062,1.002l-2,4C39.719,38.798,39.366,39,38.999,39z"/>
	</g>
</g>
</svg>
