<?xml version="1.0" encoding="utf-8"?>
<!-- Generator: Adobe Illustrator 16.0.0, SVG Export Plug-In . SVG Version: 6.00 Build 0)  -->
<!DOCTYPE svg PUBLIC "-//W3C//DTD SVG 1.1//EN" "http://www.w3.org/Graphics/SVG/1.1/DTD/svg11.dtd">
<svg version="1.1" id="Layer_1" xmlns="http://www.w3.org/2000/svg" xmlns:xlink="http://www.w3.org/1999/xlink" x="0px" y="0px"
	 width="60px" height="60px" viewBox="0 0 60 60" enable-background="new 0 0 60 60" xml:space="preserve">
<g>
	<g>
		<path fill="#008DAF" d="M60,57c0,1.65-1.35,3-3,3H3c-1.65,0-3-1.35-3-3V3c0-1.65,1.35-3,3-3h54c1.65,0,3,1.35,3,3V57z"/>
	</g>
</g>
<g>
	<g>
		<path fill="#FFFFFF" d="M42.232,25.025L48.302,45H11.636l5.589-19.975H42.232 M43.715,23.025H15.708L9,47h42L43.715,23.025
			L43.715,23.025z"/>
	</g>
	<g>
		
			<rect x="32.013" y="24.096" transform="matrix(0.9641 0.2655 -0.2655 0.9641 10.5703 -7.4961)" fill="#FFFFFF" width="2.001" height="22.511"/>
	</g>
	<g>
		
			<rect x="39.013" y="23.581" transform="matrix(0.9641 0.2657 -0.2657 0.9641 10.6932 -9.3786)" fill="#FFFFFF" width="2" height="22.51"/>
	</g>
	<g>
		
			<rect x="25.06" y="24.096" transform="matrix(0.9641 0.2656 -0.2656 0.9641 10.3234 -5.6511)" fill="#FFFFFF" width="2.001" height="22.51"/>
	</g>
	<g>
		<rect x="22" y="31" fill="#FFFFFF" width="19" height="2"/>
	</g>
	<g>
		<rect x="20" y="38" fill="#FFFFFF" width="19" height="2"/>
	</g>
	<g>
		<path fill="#FFFFFF" d="M23.208,21h-11C9.888,21,8,19.112,8,16.792c0-1.871,1.242-3.485,2.986-4.012C11.748,9.972,14.28,8,17.25,8
			c2.905,0,5.388,1.883,6.209,4.59c2.204,0.13,3.957,1.965,3.957,4.202C27.417,19.112,25.529,21,23.208,21z M17.25,10
			c-2.218,0-4.083,1.59-4.436,3.781c-0.071,0.441-0.425,0.781-0.868,0.834C10.836,14.748,10,15.684,10,16.792
			C10,18.009,10.991,19,12.208,19h11c1.217,0,2.208-0.991,2.208-2.208c0-1.218-0.991-2.209-2.208-2.209
			c-0.126,0-0.247,0.02-0.367,0.04c-0.265,0.042-0.534-0.019-0.75-0.174c-0.217-0.156-0.362-0.392-0.404-0.656
			C21.341,11.595,19.474,10,17.25,10z"/>
	</g>
</g>
</svg>
