<?xml version="1.0" encoding="utf-8"?>
<!-- Generator: Adobe Illustrator 16.0.0, SVG Export Plug-In . SVG Version: 6.00 Build 0)  -->
<!DOCTYPE svg PUBLIC "-//W3C//DTD SVG 1.1//EN" "http://www.w3.org/Graphics/SVG/1.1/DTD/svg11.dtd">
<svg version="1.1" id="Layer_1" xmlns="http://www.w3.org/2000/svg" xmlns:xlink="http://www.w3.org/1999/xlink" x="0px" y="0px"
	 width="60px" height="60px" viewBox="0 0 60 60" enable-background="new 0 0 60 60" xml:space="preserve">
<g>
	<g>
		<path fill="#008DAF" d="M60,57c0,1.65-1.35,3-3,3H3c-1.65,0-3-1.35-3-3V3c0-1.65,1.35-3,3-3h54c1.65,0,3,1.35,3,3V57z"/>
	</g>
</g>
<g>
	<g>
		<path fill="#FFFFFF" d="M20.238,26h-0.477C16.584,26,14,23.415,14,20.237V14c0-0.552,0.448-1,1-1s1,0.448,1,1v6.237
			C16,22.312,17.688,24,19.762,24h0.477C22.312,24,24,22.312,24,20.237V14c0-0.552,0.448-1,1-1s1,0.448,1,1v6.237
			C26,23.415,23.416,26,20.238,26z"/>
	</g>
	<g>
		<path fill="#FFFFFF" d="M30.238,26h-0.477C26.584,26,24,23.415,24,20.237V14c0-0.552,0.448-1,1-1s1,0.448,1,1v6.237
			C26,22.312,27.688,24,29.762,24h0.477C32.312,24,34,22.312,34,20.237V14c0-0.552,0.447-1,1-1s1,0.448,1,1v6.237
			C36,23.415,33.415,26,30.238,26z"/>
	</g>
	<g>
		<path fill="#FFFFFF" d="M40.238,26h-0.477C36.585,26,34,23.415,34,20.237V14c0-0.552,0.447-1,1-1s1,0.448,1,1v6.237
			C36,22.312,37.688,24,39.762,24h0.477C42.312,24,44,22.312,44,20.237V14c0-0.552,0.447-1,1-1s1,0.448,1,1v6.237
			C46,23.415,43.415,26,40.238,26z"/>
	</g>
	<g>
		<path fill="#FFFFFF" d="M20.238,36h-0.477C16.584,36,14,33.415,14,30.237V23c0-0.552,0.448-1,1-1s1,0.448,1,1v7.237
			C16,32.312,17.688,34,19.762,34h0.477C22.312,34,24,32.312,24,30.237V23c0-0.552,0.448-1,1-1s1,0.448,1,1v7.237
			C26,33.415,23.416,36,20.238,36z"/>
	</g>
	<g>
		<path fill="#FFFFFF" d="M30.238,36h-0.477C26.584,36,24,33.415,24,30.237V23c0-0.552,0.448-1,1-1s1,0.448,1,1v7.237
			C26,32.312,27.688,34,29.762,34h0.477C32.312,34,34,32.312,34,30.237V23c0-0.552,0.447-1,1-1s1,0.448,1,1v7.237
			C36,33.415,33.415,36,30.238,36z"/>
	</g>
	<g>
		<path fill="#FFFFFF" d="M40.238,36h-0.477C36.585,36,34,33.415,34,30.237V23c0-0.552,0.447-1,1-1s1,0.448,1,1v7.237
			C36,32.312,37.688,34,39.762,34h0.477C42.312,34,44,32.312,44,30.237V23c0-0.552,0.447-1,1-1s1,0.448,1,1v7.237
			C46,33.415,43.415,36,40.238,36z"/>
	</g>
	<path fill="#FFFFFF" d="M45,22.777v7.46C45,32.867,42.867,35,40.238,35h-0.477C37.133,35,35,32.867,35,30.237v-7.46
		C35,22.777,40.556,29.444,45,22.777z"/>
	<g>
		<path fill="#FFFFFF" d="M20.238,46h-0.477C16.584,46,14,43.415,14,40.237V33c0-0.553,0.448-1,1-1s1,0.447,1,1v7.237
			C16,42.312,17.688,44,19.762,44h0.477C22.312,44,24,42.312,24,40.237V33c0-0.553,0.448-1,1-1s1,0.447,1,1v7.237
			C26,43.415,23.416,46,20.238,46z"/>
	</g>
	<g>
		<path fill="#FFFFFF" d="M30.238,46h-0.477C26.584,46,24,43.415,24,40.237V33c0-0.553,0.448-1,1-1s1,0.447,1,1v7.237
			C26,42.312,27.688,44,29.762,44h0.477C32.312,44,34,42.312,34,40.237V33c0-0.553,0.447-1,1-1s1,0.447,1,1v7.237
			C36,43.415,33.415,46,30.238,46z"/>
	</g>
	<g>
		<path fill="#FFFFFF" d="M40.238,46h-0.477C36.585,46,34,43.415,34,40.237V33c0-0.553,0.447-1,1-1s1,0.447,1,1v7.237
			C36,42.312,37.688,44,39.762,44h0.477C42.312,44,44,42.312,44,40.237V33c0-0.553,0.447-1,1-1s1,0.447,1,1v7.237
			C46,43.415,43.415,46,40.238,46z"/>
	</g>
	<g>
		<path fill="#FFFFFF" d="M45,15H15c-0.552,0-1-0.448-1-1s0.448-1,1-1h30c0.553,0,1,0.448,1,1S45.553,15,45,15z"/>
	</g>
</g>
</svg>
