<?xml version="1.0" encoding="utf-8"?>
<!-- Generator: Adobe Illustrator 16.0.0, SVG Export Plug-In . SVG Version: 6.00 Build 0)  -->
<!DOCTYPE svg PUBLIC "-//W3C//DTD SVG 1.1//EN" "http://www.w3.org/Graphics/SVG/1.1/DTD/svg11.dtd">
<svg version="1.1" id="Layer_1" xmlns="http://www.w3.org/2000/svg" xmlns:xlink="http://www.w3.org/1999/xlink" x="0px" y="0px"
	 width="60px" height="60px" viewBox="0 0 60 60" enable-background="new 0 0 60 60" xml:space="preserve">
<g>
	<g>
		<path fill="#008DAF" d="M60,57c0,1.65-1.35,3-3,3H3c-1.65,0-3-1.35-3-3V3c0-1.65,1.35-3,3-3h54c1.65,0,3,1.35,3,3V57z"/>
	</g>
</g>
<g>
	<g>
		<path fill="#FFFFFF" d="M46.493,20H12v-8h37v5.279L46.493,20z M14,18h31.616L47,16.498V14H14V18z"/>
	</g>
	<g>
		<path fill="#FFFFFF" d="M41.794,25H31.256l-2.1-7h14.27L41.794,25z M32.744,23h7.462l0.7-3h-9.062L32.744,23z"/>
	</g>
	<g>
		<path fill="#FFFFFF" d="M40.031,49c-0.259,0-0.509-0.101-0.695-0.281l-8.031-7.777C31.109,40.753,31,40.493,31,40.223V24
			c0-0.552,0.447-1,1-1h9c0.553,0,1,0.448,1,1v12.884l3.685,3.595c0.355,0.347,0.402,0.902,0.11,1.305l-4.955,6.806
			c-0.171,0.233-0.435,0.383-0.723,0.407C40.089,48.999,40.06,49,40.031,49z M33,39.799l6.9,6.683l3.768-5.176l-3.366-3.284
			C40.108,37.833,40,37.575,40,37.306V25h-7V39.799z"/>
	</g>
	<g>
		<path fill="#FFFFFF" d="M16,30c-0.552,0-1-0.448-1-1v-5c0-0.552,0.448-1,1-1s1,0.448,1,1v5C17,29.552,16.552,30,16,30z"/>
	</g>
	<g>
		<path fill="#FFFFFF" d="M25,30c-0.552,0-1-0.448-1-1v-5c0-0.552,0.448-1,1-1s1,0.448,1,1v5C26,29.552,25.552,30,25,30z"/>
	</g>
	<g>
		<path fill="#FFFFFF" d="M21,32c-0.552,0-1-0.447-1-1v-4c0-0.552,0.448-1,1-1s1,0.448,1,1v4C22,31.553,21.552,32,21,32z"/>
	</g>
	<g>
		<path fill="#FFFFFF" d="M20.778,49c-3.232,0-5.861-2.629-5.861-5.861c0-2.999,4.612-7.917,5.138-8.468l0.723-0.758l0.724,0.758
			c0.525,0.551,5.137,5.469,5.137,8.468C26.639,46.371,24.009,49,20.778,49z M20.778,36.841c-1.723,1.951-3.861,4.85-3.861,6.298
			c0,2.129,1.732,3.861,3.861,3.861s3.861-1.732,3.861-3.861C24.639,41.688,22.5,38.79,20.778,36.841z"/>
	</g>
</g>
</svg>
