<?xml version="1.0" encoding="utf-8"?>
<!-- Generator: Adobe Illustrator 16.0.0, SVG Export Plug-In . SVG Version: 6.00 Build 0)  -->
<!DOCTYPE svg PUBLIC "-//W3C//DTD SVG 1.1//EN" "http://www.w3.org/Graphics/SVG/1.1/DTD/svg11.dtd">
<svg version="1.1" id="Layer_1" xmlns="http://www.w3.org/2000/svg" xmlns:xlink="http://www.w3.org/1999/xlink" x="0px" y="0px"
	 width="60px" height="60px" viewBox="0 0 60 60" enable-background="new 0 0 60 60" xml:space="preserve">
<g>
	<g>
		<path fill="#008DAF" d="M60,57c0,1.65-1.35,3-3,3H3c-1.65,0-3-1.35-3-3V3c0-1.65,1.35-3,3-3h54c1.65,0,3,1.35,3,3V57z"/>
	</g>
</g>
<g>
	<g>
		<path fill="#FFFFFF" d="M20.238,27h-0.477C16.692,27,14,24.074,14,20.737V15c0-0.552,0.448-1,1-1s1,0.448,1,1v5.737
			C16,22.75,17.609,25,19.762,25h0.477C22.391,25,24,22.75,24,20.737V15c0-0.552,0.448-1,1-1s1,0.448,1,1v5.737
			C26,24.074,23.308,27,20.238,27z"/>
	</g>
	<g>
		<path fill="#FFFFFF" d="M30.238,27h-0.477C26.692,27,24,24.074,24,20.737V15c0-0.552,0.448-1,1-1s1,0.448,1,1v5.737
			C26,22.75,27.609,25,29.762,25h0.477C32.392,25,34,22.75,34,20.737V15c0-0.552,0.447-1,1-1s1,0.448,1,1v5.737
			C36,24.074,33.308,27,30.238,27z"/>
	</g>
	<g>
		<path fill="#FFFFFF" d="M40.238,27h-0.477C36.692,27,34,24.074,34,20.737V15c0-0.552,0.447-1,1-1s1,0.448,1,1v5.737
			C36,22.75,37.608,25,39.762,25h0.477C42.392,25,44,22.75,44,20.737V15c0-0.552,0.447-1,1-1s1,0.448,1,1v5.737
			C46,24.074,43.308,27,40.238,27z"/>
	</g>
	<g>
		<path fill="#FFFFFF" d="M20.238,37h-0.477C16.692,37,14,34.073,14,30.737V24c0-0.552,0.448-1,1-1s1,0.448,1,1v6.737
			C16,32.749,17.609,35,19.762,35h0.477C22.391,35,24,32.749,24,30.737V24c0-0.552,0.448-1,1-1s1,0.448,1,1v6.737
			C26,34.073,23.308,37,20.238,37z"/>
	</g>
	<g>
		<path fill="#FFFFFF" d="M30.393,37h-0.631C26.584,37,24,33.915,24,30.737V24c0-0.552,0.448-1,1-1s1,0.448,1,1v6.737
			c0,1.868,1.368,3.672,3.154,3.964L29.607,34h0.631C31.644,34,34,33.141,34,30.737V24c0-0.552,0.447-1,1-1s1,0.448,1,1v6.737
			c0,2.757-1.944,4.784-5.121,4.992L30.393,37z"/>
	</g>
	<g>
		<path fill="#FFFFFF" d="M40.238,37h-0.477C36.692,37,34,34.073,34,30.737V24c0-0.552,0.447-1,1-1s1,0.448,1,1v6.737
			C36,32.749,37.608,35,39.762,35h0.477C42.392,35,44,32.749,44,30.737V24c0-0.552,0.447-1,1-1s1,0.448,1,1v6.737
			C46,34.073,43.308,37,40.238,37z"/>
	</g>
	<g>
		<path fill="#FFFFFF" d="M20.393,47h-0.631C16.584,47,14,43.915,14,40.737V34c0-0.553,0.448-1,1-1s1,0.447,1,1v6.737
			c0,1.868,1.368,3.672,3.154,3.964L19.607,44h0.631C21.643,44,24,43.141,24,40.737V34c0-0.553,0.448-1,1-1s1,0.447,1,1v6.737
			c0,2.757-1.944,4.784-5.121,4.992L20.393,47z"/>
	</g>
	<g>
		<path fill="#FFFFFF" d="M30.238,47h-0.477C26.692,47,24,44.073,24,40.737V34c0-0.553,0.448-1,1-1s1,0.447,1,1v6.737
			C26,42.749,27.609,45,29.762,45h0.477C32.392,45,34,42.749,34,40.737V34c0-0.553,0.447-1,1-1s1,0.447,1,1v6.737
			C36,44.073,33.308,47,30.238,47z"/>
	</g>
	<g>
		<path fill="#FFFFFF" d="M40.238,47h-0.477C36.692,47,34,44.073,34,40.737V34c0-0.553,0.447-1,1-1s1,0.447,1,1v6.737
			C36,42.749,37.608,45,39.762,45h0.477C42.392,45,44,42.749,44,40.737V34c0-0.553,0.447-1,1-1s1,0.447,1,1v6.737
			C46,44.073,43.308,47,40.238,47z"/>
	</g>
	<g>
		<path fill="#FFFFFF" d="M45,16H15c-0.552,0-1-0.448-1-1s0.448-1,1-1h30c0.553,0,1,0.448,1,1S45.553,16,45,16z"/>
	</g>
</g>
</svg>
