<?xml version="1.0" encoding="utf-8"?>
<!-- Generator: Adobe Illustrator 16.0.0, SVG Export Plug-In . SVG Version: 6.00 Build 0)  -->
<!DOCTYPE svg PUBLIC "-//W3C//DTD SVG 1.1//EN" "http://www.w3.org/Graphics/SVG/1.1/DTD/svg11.dtd">
<svg version="1.1" id="Layer_1" xmlns="http://www.w3.org/2000/svg" xmlns:xlink="http://www.w3.org/1999/xlink" x="0px" y="0px"
	 width="60px" height="60px" viewBox="0 0 60 60" enable-background="new 0 0 60 60" xml:space="preserve">
<g>
	<g>
		<path fill="#008DAF" d="M60,57c0,1.65-1.35,3-3,3H3c-1.65,0-3-1.35-3-3V3c0-1.65,1.35-3,3-3h54c1.65,0,3,1.35,3,3V57z"/>
	</g>
</g>
<g>
	<g>
		<polygon fill="#FFFFFF" points="51.793,45.5 20.351,45.5 17.513,44.554 14.675,45.5 8.195,45.5 15.43,19.613 22.356,18.512 
			22.669,20.488 17.011,21.387 10.831,43.5 14.351,43.5 17.513,42.446 20.675,43.5 49.182,43.5 42.45,18.578 28.579,19.498 
			28.446,17.502 43.954,16.473 		"/>
	</g>
	<g>
		
			<rect x="38.5" y="18.143" transform="matrix(0.974 0.2266 -0.2266 0.974 8.1329 -8.1366)" fill="#FFFFFF" width="1.999" height="26.413"/>
	</g>
	<g>
		<path fill="#FFFFFF" d="M30,26h-8V13h8V26z M24,24h4v-9h-4V24z"/>
	</g>
	<g>
		
			<rect x="31.763" y="25.775" transform="matrix(0.7071 0.7071 -0.7071 0.7071 29.5717 -14.8925)" fill="#FFFFFF" width="2" height="4.95"/>
	</g>
	<g>
		
			<rect x="18.513" y="30.672" transform="matrix(0.7071 0.7071 -0.7071 0.7071 29.4032 -3.9856)" fill="#FFFFFF" width="2" height="5.657"/>
	</g>
	<g>
		
			<rect x="29.763" y="34.775" transform="matrix(0.7071 0.7071 -0.7071 0.7071 35.3499 -10.8422)" fill="#FFFFFF" width="2" height="4.95"/>
	</g>
</g>
</svg>
