<?xml version="1.0" encoding="utf-8"?>
<!-- Generator: Adobe Illustrator 16.0.0, SVG Export Plug-In . SVG Version: 6.00 Build 0)  -->
<!DOCTYPE svg PUBLIC "-//W3C//DTD SVG 1.1//EN" "http://www.w3.org/Graphics/SVG/1.1/DTD/svg11.dtd">
<svg version="1.1" id="Layer_1" xmlns="http://www.w3.org/2000/svg" xmlns:xlink="http://www.w3.org/1999/xlink" x="0px" y="0px"
	 width="60px" height="60px" viewBox="0 0 60 60" enable-background="new 0 0 60 60" xml:space="preserve">
<g>
	<g>
		<path fill="#008DAF" d="M60,57c0,1.65-1.35,3-3,3H3c-1.65,0-3-1.35-3-3V3c0-1.65,1.35-3,3-3h54c1.65,0,3,1.35,3,3V57z"/>
	</g>
</g>
<g>
	<g>
		<path fill="#FFFFFF" d="M19.587,47h-0.508C15.727,47,13,44.272,13,40.92c0-0.553,0.448-1,1-1s1,0.447,1,1
			c0,2.25,1.83,4.08,4.079,4.08h0.508c2.249,0,4.079-1.83,4.079-4.08c0-0.553,0.448-1,1-1s1,0.447,1,1
			C25.667,44.272,22.939,47,19.587,47z"/>
	</g>
	<g>
		<path fill="#FFFFFF" d="M24.667,42.373c-0.552,0-1-0.447-1-1c0-3.454,2.784-6.373,6.079-6.373h0.508
			c3.296,0,6.08,2.852,6.08,6.227c0,0.553-0.447,1-1,1s-1-0.447-1-1c0-2.291-1.868-4.227-4.08-4.227h-0.508
			c-2.173,0-4.079,2.044-4.079,4.373C25.667,41.926,25.219,42.373,24.667,42.373z"/>
	</g>
	<g>
		<path fill="#FFFFFF" d="M40.921,47h-0.509c-3.352,0-6.078-2.728-6.078-6.08c0-0.553,0.447-1,1-1s1,0.447,1,1
			c0,2.25,1.829,4.08,4.078,4.08h0.509C43.17,45,45,43.17,45,40.92c0-0.553,0.447-1,1-1s1,0.447,1,1C47,44.272,44.272,47,40.921,47z
			"/>
	</g>
	<g>
		<path fill="#FFFFFF" d="M19.587,24h-0.508C15.727,24,13,21.22,13,17.803c0-0.552,0.448-1,1-1s1,0.448,1,1
			C15,20.078,16.868,22,19.079,22h0.508c2.173,0,4.079-2.016,4.079-4.313c0-0.552,0.448-1,1-1s1,0.448,1,1
			C25.667,21.109,22.883,24,19.587,24z"/>
	</g>
	<g>
		<path fill="#FFFFFF" d="M24.667,19.14c-0.552,0-1-0.448-1-1c0-3.385,2.727-6.14,6.079-6.14h0.508c3.353,0,6.08,2.741,6.08,6.11
			c0,0.552-0.447,1-1,1s-1-0.448-1-1c0-2.267-1.83-4.11-4.08-4.11h-0.508c-2.249,0-4.079,1.857-4.079,4.14
			C25.667,18.692,25.219,19.14,24.667,19.14z"/>
	</g>
	<g>
		<path fill="#FFFFFF" d="M40.921,24h-0.509c-3.352,0-6.078-2.78-6.078-6.197c0-0.552,0.447-1,1-1s1,0.448,1,1
			c0,2.275,1.867,4.197,4.078,4.197h0.509C43.094,22,45,19.984,45,17.687c0-0.552,0.447-1,1-1s1,0.448,1,1
			C47,21.109,44.216,24,40.921,24z"/>
	</g>
	<g>
		<path fill="#FFFFFF" d="M14,42c-0.552,0-1-0.447-1-1V17c0-0.552,0.448-1,1-1s1,0.448,1,1v24C15,41.553,14.552,42,14,42z"/>
	</g>
	<g>
		<path fill="#FFFFFF" d="M46,42c-0.553,0-1-0.447-1-1V18c0-0.552,0.447-1,1-1s1,0.448,1,1v23C47,41.553,46.553,42,46,42z"/>
	</g>
	<g>
		<path fill="#FFFFFF" d="M35,40c-0.553,0-1-0.447-1-1V28c0-0.552,0.447-1,1-1s1,0.448,1,1v11C36,39.553,35.553,40,35,40z"/>
	</g>
	<g>
		<path fill="#FFFFFF" d="M25,29c-0.552,0-1-0.448-1-1V17c0-0.552,0.448-1,1-1s1,0.448,1,1v11C26,28.552,25.552,29,25,29z"/>
	</g>
	<g>
		<path fill="#FFFFFF" d="M42,46c-0.553,0-1-0.447-1-1V33c0-0.553,0.447-1,1-1s1,0.447,1,1v12C43,45.553,42.553,46,42,46z"/>
	</g>
	<g>
		<path fill="#FFFFFF" d="M42,31c-0.553,0-1-0.448-1-1v-3c0-0.552,0.447-1,1-1s1,0.448,1,1v3C43,30.552,42.553,31,42,31z"/>
	</g>
	<g>
		<path fill="#FFFFFF" d="M18,37c-0.552,0-1-0.447-1-1V23c0-0.552,0.448-1,1-1s1,0.448,1,1v13C19,36.553,18.552,37,18,37z"/>
	</g>
</g>
</svg>
