<?xml version="1.0" encoding="utf-8"?>
<!-- Generator: Adobe Illustrator 16.0.0, SVG Export Plug-In . SVG Version: 6.00 Build 0)  -->
<!DOCTYPE svg PUBLIC "-//W3C//DTD SVG 1.1//EN" "http://www.w3.org/Graphics/SVG/1.1/DTD/svg11.dtd">
<svg version="1.1" id="Layer_1" xmlns="http://www.w3.org/2000/svg" xmlns:xlink="http://www.w3.org/1999/xlink" x="0px" y="0px"
	 width="60px" height="60px" viewBox="0 0 60 60" enable-background="new 0 0 60 60" xml:space="preserve">
<g>
	<g>
		<path fill="#008DAF" d="M60,57c0,1.65-1.35,3-3,3H3c-1.65,0-3-1.35-3-3V3c0-1.65,1.35-3,3-3h54c1.65,0,3,1.35,3,3V57z"/>
	</g>
</g>
<g>
	<g>
		<path fill="#FFFFFF" d="M48,48H12V12h36V48z M14,46h32V14H14V46z"/>
	</g>
	<g>
		<path fill="#FFFFFF" d="M40,43H20V17h20V43z M22,41h16V19H22V41z"/>
	</g>
	<g>
		<path fill="#FFFFFF" d="M21,22h-7c-0.552,0-1-0.448-1-1s0.448-1,1-1h7c0.552,0,1,0.448,1,1S21.552,22,21,22z"/>
	</g>
	<g>
		<path fill="#FFFFFF" d="M21,30h-7c-0.552,0-1-0.448-1-1s0.448-1,1-1h7c0.552,0,1,0.448,1,1S21.552,30,21,30z"/>
	</g>
	<g>
		<path fill="#FFFFFF" d="M21,40h-7c-0.552,0-1-0.447-1-1s0.448-1,1-1h7c0.552,0,1,0.447,1,1S21.552,40,21,40z"/>
	</g>
	<g>
		<path fill="#FFFFFF" d="M47,22h-8c-0.553,0-1-0.448-1-1s0.447-1,1-1h8c0.553,0,1,0.448,1,1S47.553,22,47,22z"/>
	</g>
	<g>
		<path fill="#FFFFFF" d="M47,30h-8c-0.553,0-1-0.448-1-1s0.447-1,1-1h8c0.553,0,1,0.448,1,1S47.553,30,47,30z"/>
	</g>
	<g>
		<path fill="#FFFFFF" d="M47,40h-8c-0.553,0-1-0.447-1-1s0.447-1,1-1h8c0.553,0,1,0.447,1,1S47.553,40,47,40z"/>
	</g>
	<g>
		<path fill="#FFFFFF" d="M29,43c-0.552,0-1-0.447-1-1V18c0-0.552,0.448-1,1-1s1,0.448,1,1v24C30,42.553,29.552,43,29,43z"/>
	</g>
	<g>
		<path fill="#FFFFFF" d="M38,28h-8c-0.552,0-1-0.448-1-1s0.448-1,1-1h8c0.553,0,1,0.448,1,1S38.553,28,38,28z"/>
	</g>
</g>
</svg>
