<?xml version="1.0" encoding="utf-8"?>
<!-- Generator: Adobe Illustrator 16.0.0, SVG Export Plug-In . SVG Version: 6.00 Build 0)  -->
<!DOCTYPE svg PUBLIC "-//W3C//DTD SVG 1.1//EN" "http://www.w3.org/Graphics/SVG/1.1/DTD/svg11.dtd">
<svg version="1.1" id="Layer_1" xmlns="http://www.w3.org/2000/svg" xmlns:xlink="http://www.w3.org/1999/xlink" x="0px" y="0px"
	 width="60px" height="60px" viewBox="0 0 60 60" enable-background="new 0 0 60 60" xml:space="preserve">
<g>
	<g>
		<path fill="#008DAF" d="M60,57c0,1.65-1.35,3-3,3H3c-1.65,0-3-1.35-3-3V3c0-1.65,1.35-3,3-3h54c1.65,0,3,1.35,3,3V57z"/>
	</g>
</g>
<g>
	<g>
		<polygon fill="#FFFFFF" points="22,46 11,46 11,11 47,11 47,30 45,30 45,13 13,13 13,44 22,44 		"/>
	</g>
	<g>
		<path fill="#FFFFFF" d="M40,21H13c-0.552,0-1-0.448-1-1s0.448-1,1-1h27c0.553,0,1,0.448,1,1S40.553,21,40,21z"/>
	</g>
	<g>
		<path fill="#FFFFFF" d="M36,29H13c-0.552,0-1-0.448-1-1s0.448-1,1-1h23c0.553,0,1,0.448,1,1S36.553,29,36,29z"/>
	</g>
	<g>
		<path fill="#FFFFFF" d="M25,38H13c-0.552,0-1-0.447-1-1s0.448-1,1-1h12c0.552,0,1,0.447,1,1S25.552,38,25,38z"/>
	</g>
	<g>
		<path fill="#FFFFFF" d="M46,21h-8c-0.553,0-1-0.448-1-1s0.447-1,1-1h8c0.553,0,1,0.448,1,1S46.553,21,46,21z"/>
	</g>
	<g>
		<path fill="none" stroke="#FFFFFF" stroke-width="2" stroke-linecap="round" stroke-miterlimit="10" d="M38,28"/>
	</g>
	<g>
		<path fill="none" stroke="#FFFFFF" stroke-width="2" stroke-linecap="round" stroke-miterlimit="10" d="M46,28"/>
	</g>
	<g>
		<path fill="none" stroke="#FFFFFF" stroke-width="2" stroke-linecap="round" stroke-miterlimit="10" d="M46,38"/>
	</g>
	<g>
		<path fill="#FFFFFF" d="M44.232,49h-4.99c-2.49,0-4.163-1.401-4.163-2.711c0-0.553,0.447-1,1-1c0.523,0,0.952,0.401,0.996,0.913
			C37.178,46.378,37.791,47,39.242,47h4.99C45.811,47,47,45.901,47,44.443v-6.991C47,35.768,45.565,35,44.232,35h-4.706
			c-0.325,0-0.63-0.158-0.816-0.423c-0.188-0.266-0.234-0.605-0.126-0.911L41,26.854v-1.644C40.978,25.146,40.706,25,40.158,25
			c-0.563,0-0.935,0.659-0.938,0.666c-0.953,1.996-4.307,8.637-6.978,9.304c-0.534,0.134-1.079-0.191-1.212-0.728
			c-0.134-0.535,0.191-1.078,0.728-1.212c1.213-0.304,3.887-4.519,5.669-8.25c0.345-0.676,1.292-1.78,2.731-1.78
			c2.05,0,2.822,1.309,2.842,2.189v1.837c0,0.114-0.02,0.227-0.058,0.334l-2,5.639h3.29C46.95,33,49,34.914,49,37.452v6.991
			C49,46.998,46.906,49,44.232,49z"/>
	</g>
	<g>
		<path fill="#FFFFFF" d="M32,49h-7c-0.552,0-1-0.447-1-1V34c0-0.553,0.448-1,1-1h7c0.553,0,1,0.447,1,1v14
			C33,48.553,32.553,49,32,49z M26,47h5V35h-5V47z"/>
	</g>
	<g>
		<path fill="#FFFFFF" d="M29,46c-0.552,0-1-0.447-1-1v-1c0-0.553,0.448-1,1-1s1,0.447,1,1v1C30,45.553,29.552,46,29,46z"/>
	</g>
</g>
</svg>
